<svg width="408" height="79" viewBox="0 0 408 79" fill="none" xmlns="http://www.w3.org/2000/svg">
<path d="M23.0959 13.256V14.664C23.0959 16.168 22.8079 18.792 22.5839 19.848L21.2079 20.04C21.0799 19.144 20.9839 17.512 20.9839 16.36V4.03997C20.9839 2.63197 19.7359 1.86397 17.0799 1.22397L17.4319 0.391968C19.5119 0.647968 21.7839 1.09597 23.4159 1.41597C23.2559 2.18397 23.0959 3.23997 23.0959 4.03997V12.008C24.7919 11.944 27.0959 11.688 29.3039 11.336L29.0159 13.256C27.2879 13.192 24.7599 13.256 23.0959 13.256ZM17.5919 20.264C20.7919 20.552 23.0959 22.632 23.0959 25.288C23.0959 28.2 20.3759 30.344 16.7919 30.344C13.1759 30.344 10.4879 28.2 10.4879 25.288C10.4879 22.568 12.9199 20.424 16.2159 20.264C16.1519 19.816 15.7999 19.528 14.9359 19.24L15.2239 18.664C16.1839 18.856 16.9519 18.984 17.9759 19.176C17.8159 19.528 17.6879 19.88 17.5919 20.264ZM20.9199 25.16C20.9199 22.984 19.0959 21.224 16.7919 21.224C14.3919 21.224 12.5679 22.984 12.5679 25.16C12.5679 27.368 14.3919 29.064 16.7919 29.064C19.1279 29.064 20.9199 27.368 20.9199 25.16ZM13.6879 2.53597L13.3039 4.03997C11.8639 4.00797 10.0719 4.10397 8.95186 4.10397C8.37586 4.10397 6.87186 4.16797 5.78386 4.32797L4.85586 2.47197C5.84786 2.69597 7.25586 2.95197 8.53586 2.95197C9.55986 2.95197 11.7359 2.79197 13.6879 2.53597ZM18.2959 5.67197L17.9759 7.46397C15.0959 7.43197 7.99186 7.62397 5.30386 7.75197C4.27986 7.81597 2.13586 7.97597 1.11186 8.13597L0.151855 6.18397C1.33586 6.40797 3.15986 6.53597 4.34386 6.53597C7.22386 6.50397 14.4879 6.34397 18.2959 5.67197ZM15.6399 13.992C15.6399 16.68 12.8879 18.856 9.43186 18.856C6.00786 18.856 3.22386 16.616 3.22386 13.992C3.22386 11.112 6.00786 9.09597 9.43186 9.09597C13.0799 9.09597 15.6399 11.4 15.6399 13.992ZM5.49586 13.832C5.49586 15.88 7.19186 17.64 9.43186 17.64C11.6719 17.64 13.3679 15.976 13.3679 13.832C13.3679 11.848 11.7679 10.056 9.43186 10.056C7.19186 10.056 5.49586 11.624 5.49586 13.832Z" fill="black"/>
<path d="M39.1261 9.57597C41.3021 11.464 43.4141 12.968 46.6461 14.92L44.8221 16.552C42.5821 14.184 40.8541 12.776 38.4861 10.44C35.8941 13.672 32.5661 16.04 29.2701 17.928L28.7261 17.288C33.2381 14.312 37.4941 9.92797 38.7741 5.57597C38.9661 4.99997 39.0941 4.80797 38.5821 4.42397C38.1981 4.16797 37.6221 3.78397 36.6621 3.33597L37.1741 2.69597C38.8701 3.14397 40.4061 3.52797 42.0381 4.16797C41.3021 6.18397 40.3101 7.97597 39.1261 9.57597ZM46.9021 19.88C50.1981 20.168 52.5981 22.344 52.5981 25.096C52.5981 28.104 49.7501 30.344 46.0381 30.344C42.2941 30.344 39.5101 28.104 39.5101 25.096C39.5101 22.248 42.0381 20.04 45.4621 19.848C45.3661 19.368 45.0461 19.08 44.1181 18.792L44.4381 18.184C45.3981 18.376 46.2621 18.504 47.2861 18.728C47.1261 19.08 46.9981 19.432 46.9021 19.88ZM50.3261 24.936C50.3261 22.632 48.4381 20.808 46.0061 20.808C43.5741 20.808 41.6861 22.632 41.6861 24.936C41.6861 27.24 43.5741 29.032 46.0061 29.032C48.4701 29.032 50.3261 27.24 50.3261 24.936ZM52.5661 11.144V14.088C52.5661 15.592 52.2781 18.216 52.0541 19.272L50.6781 19.464C50.5501 18.568 50.4541 16.936 50.4541 15.784V4.03997C50.4541 2.63197 49.2061 1.86397 46.5501 1.22397L46.9021 0.391968C48.9821 0.647968 51.2541 1.09597 52.8861 1.41597C52.7261 2.18397 52.5661 3.23997 52.5661 4.03997V9.89597C54.2621 9.83197 56.5661 9.57597 58.7741 9.22397L58.4861 11.144C56.7581 11.08 54.2301 11.144 52.5661 11.144Z" fill="black"/>
<path d="M76.4861 4.61597C79.9741 4.96797 82.4701 7.27197 82.4701 10.184C82.4701 13.416 79.4621 15.816 75.4941 15.816C71.5261 15.816 68.5821 13.416 68.5821 10.184C68.5821 7.11197 71.3341 4.71197 75.0461 4.55197C74.9821 4.03997 74.6621 3.71997 73.7021 3.43197L74.0221 2.82397C74.9821 3.01597 75.8781 3.14397 76.9021 3.36797C76.7421 3.75197 76.5821 4.13597 76.4861 4.61597ZM80.2301 10.056C80.2301 7.55997 78.1821 5.54397 75.5261 5.54397C72.8701 5.54397 70.8221 7.55997 70.8221 10.056C70.8221 12.616 72.8701 14.504 75.5261 14.504C78.2141 14.504 80.2301 12.616 80.2301 10.056ZM90.2781 10.248V11.912C90.2781 13.416 89.9901 16.04 89.7661 17.096L88.3901 17.288C88.2621 16.392 88.1661 14.76 88.1661 13.608V4.03997C88.1661 2.63197 86.9181 1.86397 84.2621 1.22397L84.6141 0.391968C86.6941 0.647968 88.9661 1.09597 90.5981 1.41597C90.4381 2.18397 90.2781 3.23997 90.2781 4.03997V8.99997C91.9741 8.93597 94.2781 8.67997 96.4861 8.32797L96.1981 10.248C94.4701 10.184 91.9421 10.248 90.2781 10.248ZM90.9181 18.248L90.4381 20.104C87.0141 19.912 79.6541 20.392 77.3501 20.52C76.2941 20.584 74.0541 20.744 72.9341 20.904L72.0701 18.92C73.3181 19.144 75.4301 19.304 76.7101 19.304C79.7181 19.304 85.8621 18.888 90.9181 18.248ZM86.7261 27.624C88.8061 27.464 90.7901 27.272 92.4541 27.048L91.9741 28.904C87.9101 28.712 79.1101 29.128 76.8061 29.288C75.7501 29.352 73.5101 29.544 72.3901 29.704L71.5261 27.72C72.7741 27.944 74.8861 28.104 76.1661 28.104H77.7341L77.3821 24.904C77.2221 23.528 76.9981 22.664 75.1741 22.568L75.3341 21.768C76.5821 21.768 77.8301 21.896 79.3021 22.088C79.1101 22.824 79.2061 24.04 79.2701 24.84L79.5581 28.04C81.1581 27.976 83.0141 27.88 84.9021 27.752L85.3501 24.104C85.5101 22.664 85.0941 22.12 83.2381 21.64L83.5261 20.872C84.7741 21 86.3421 21.16 87.7181 21.48C87.5901 22.248 87.3021 23.336 87.2061 24.136L86.7261 27.624Z" fill="black"/>
<path d="M117.028 12.936C113.636 12.808 109.22 13 105.252 13.16C105.188 13.512 105.124 13.832 105.06 14.12L103.78 14.312C103.652 13.512 103.556 12.392 103.556 11.24V5.22397C103.556 3.78397 103.108 3.27197 101.028 2.79197L101.348 2.02397C102.756 2.15197 104.26 2.31197 105.892 2.66397C105.732 3.43197 105.572 4.32797 105.572 5.12797V6.24797C109.092 6.21597 113.092 6.11997 116.932 5.79997V4.16797C116.932 2.75997 116.324 2.24797 114.084 1.70397L114.404 0.903969C116.132 1.09597 117.668 1.28797 119.3 1.60797C119.14 2.37597 118.98 3.27197 118.98 4.07197V9.35197C118.98 10.856 118.692 12.776 118.468 13.768L117.156 13.96C117.124 13.672 117.06 13.32 117.028 12.936ZM116.932 11.56V7.23997C113.444 7.11197 109.284 7.20797 105.572 7.43197V9.86397C105.572 10.536 105.508 11.272 105.412 11.976C108.932 11.944 113.316 11.784 116.932 11.56ZM112.74 18.376V23.464C112.74 25.672 112.548 28.552 112.228 30.312L110.852 30.536C110.66 29.064 110.628 26.344 110.628 24.52V18.408C107.14 18.504 103.62 18.632 102.244 18.728C100.644 18.824 99.0124 18.952 97.4764 19.144L96.6764 16.968C98.5964 17.192 100.292 17.288 102.212 17.352C105.348 17.48 114.692 17.192 117.764 17.064C120.612 16.936 123.236 16.712 125.508 16.392L125.188 18.44C123.524 18.344 120.964 18.312 118.148 18.28C116.932 18.28 114.948 18.312 112.74 18.376Z" fill="black"/>
<path d="M146.627 13.032C143.235 12.904 138.883 13.096 134.883 13.256C134.851 13.576 134.787 13.864 134.723 14.12L133.443 14.312C133.315 13.512 133.219 12.392 133.219 11.24V5.22397C133.219 3.78397 132.771 3.27197 130.691 2.79197L131.011 2.02397C132.419 2.15197 133.923 2.31197 135.555 2.66397C135.395 3.43197 135.235 4.32797 135.235 5.12797V6.34397C138.723 6.31197 142.723 6.21597 146.531 5.89597V4.16797C146.531 2.75997 145.923 2.24797 143.683 1.70397L144.003 0.903969C145.731 1.09597 147.267 1.28797 148.899 1.60797C148.739 2.37597 148.579 3.27197 148.579 4.07197V9.35197C148.579 10.856 148.291 12.776 148.067 13.768L146.755 13.96C146.723 13.704 146.659 13.384 146.627 13.032ZM146.531 11.656V7.33597C143.043 7.20797 138.947 7.30397 135.235 7.52797V9.86397C135.235 10.568 135.171 11.336 135.043 12.072C138.563 12.04 142.915 11.88 146.531 11.656ZM151.299 27.432L150.947 29.352C145.731 29.064 138.659 29.224 134.883 29.448C133.731 29.512 133.251 28.872 133.251 28.04V24.936C133.251 22.984 132.995 22.696 130.531 22.056L130.883 21.256C132.131 21.416 134.243 21.64 135.523 21.832C135.459 22.344 135.363 23.368 135.363 24.136V27.048C135.363 27.944 135.683 28.136 136.899 28.168C140.099 28.232 147.651 27.976 151.299 27.432ZM142.627 18.248V19.688C142.627 21.192 142.435 23.336 142.179 24.84L140.739 25.032C140.579 23.528 140.483 21.288 140.483 20.136V18.28C136.739 18.376 132.867 18.504 131.427 18.6C129.827 18.696 128.195 18.824 126.659 19.016L125.859 16.84C127.779 17.064 129.475 17.16 131.395 17.224C134.531 17.352 144.323 17.064 147.395 16.936C150.243 16.808 152.867 16.584 155.139 16.264L154.819 18.312C153.155 18.216 150.595 18.184 147.779 18.152C146.627 18.152 144.739 18.184 142.627 18.248Z" fill="black"/>
<path d="M169.953 15.08C170.401 15.048 170.817 14.984 171.201 14.952L170.785 16.648C167.489 16.424 164.001 16.488 160.449 16.648C160.449 17.096 160.385 17.544 160.289 17.928L159.073 18.12C158.881 17.288 158.689 16.168 158.625 15.112L158.113 8.07197C157.985 6.47197 157.633 6.21597 155.841 5.73597L156.193 4.93597C161.569 5.57597 165.505 5.31997 171.201 4.83997C170.849 7.20797 170.177 12.584 169.953 15.08ZM168.257 15.24L168.609 6.40797C165.953 6.27997 162.593 6.40797 160.257 6.56797L160.513 14.536C160.513 14.824 160.545 15.176 160.513 15.528C163.201 15.528 165.857 15.4 168.257 15.24ZM178.401 12.136V17C178.401 18.888 178.177 21.48 177.889 22.888L176.513 23.112C176.385 22.056 176.289 19.56 176.289 18.056V4.03997C176.289 2.63197 175.041 1.86397 172.385 1.22397L172.737 0.391968C174.817 0.647968 177.089 1.09597 178.721 1.41597C178.561 2.18397 178.401 3.23997 178.401 4.03997V10.888C180.097 10.824 182.401 10.568 184.609 10.216L184.321 12.136C182.593 12.072 180.065 12.136 178.401 12.136ZM180.737 27.272L180.385 29.192C175.169 29.064 169.793 29.224 166.017 29.448C164.865 29.512 164.385 28.872 164.385 28.04V24.2C164.385 22.248 164.129 21.96 161.665 21.32L162.017 20.52C163.265 20.68 165.377 20.904 166.657 21.096C166.593 21.608 166.497 22.632 166.497 23.4V27.048C166.497 27.944 166.817 28.136 168.033 28.168C171.233 28.232 177.089 27.816 180.737 27.272Z" fill="black"/>
<path d="M203.121 10.312C204.657 11.656 206.353 12.904 208.273 13.736C210.193 11.144 211.505 8.42397 212.273 5.95997C212.465 5.38397 212.465 5.15997 212.177 4.77597C211.985 4.51997 210.865 3.84797 210.289 3.59197L210.705 2.95197C211.793 3.17597 214.129 3.78397 215.249 4.23197C214.737 6.18397 213.809 8.16797 212.625 10.088C214.673 11.848 218.321 14.28 220.561 15.208L218.769 16.872L212.017 11.048C210.033 14.152 207.377 16.936 204.817 18.696L204.241 18.152C205.297 17.224 206.257 16.264 207.089 15.272L202.481 11.24C200.497 14.12 198.065 16.424 195.601 18.056L194.993 17.544C198.417 14.984 201.777 10.216 202.865 6.43997C203.025 5.89597 203.057 5.63997 202.769 5.28797C202.577 4.99997 201.585 4.42397 201.009 4.13597L201.425 3.49597C202.513 3.75197 204.689 4.32797 205.809 4.74397C205.105 6.79197 204.209 8.61597 203.121 10.312ZM222.097 23.144L221.777 25.192C220.113 25.096 217.553 25.096 214.737 25.064C211.217 25.032 202.033 25.384 199.473 25.544C197.873 25.64 196.241 25.736 194.705 25.928L193.905 23.752C195.825 23.976 197.521 24.072 199.441 24.136C202.577 24.264 211.281 23.976 214.353 23.848C217.201 23.72 219.825 23.464 222.097 23.144Z" fill="black"/>
<path d="M243.631 16.488V4.03997C243.631 2.63197 242.383 1.86397 239.727 1.22397L240.079 0.391968C242.159 0.647968 244.431 1.09597 246.063 1.41597C245.903 2.18397 245.743 3.23997 245.743 4.03997V13.064C247.439 13 249.839 12.808 252.079 12.392L251.791 14.376C250.031 14.312 247.375 14.376 245.743 14.376V21.544C245.743 24.136 245.519 28.584 245.199 30.472L243.887 30.632C243.727 29.224 243.631 26.216 243.631 23.816V17.48C239.887 19.016 233.199 20.872 229.071 21.448C227.215 21.704 226.479 21.032 226.479 19.112V9.99197C226.479 8.32797 226.063 7.75197 223.727 7.11197L224.079 6.31197C228.623 7.01597 234.511 6.63197 238.799 5.92797L238.415 7.78397C234.479 7.62397 231.087 7.81597 228.591 8.00797V18.472C228.591 19.304 229.103 19.56 229.807 19.528C233.199 19.304 239.855 17.864 243.631 16.488Z" fill="black"/>
<path d="M275.405 15.464V21.544C275.405 24.136 275.181 28.584 274.861 30.472L273.549 30.632C273.389 29.224 273.293 26.216 273.293 23.816V4.03997C273.293 2.63197 272.045 1.86397 269.389 1.22397L269.741 0.391968C271.821 0.647968 274.093 1.09597 275.725 1.41597C275.565 2.18397 275.405 3.23997 275.405 4.03997V14.152C277.101 14.088 279.437 13.832 281.645 13.48L281.357 15.464C279.629 15.4 277.069 15.464 275.405 15.464ZM267.533 5.73597L268.269 6.40797C265.869 13.64 259.853 20.392 253.549 23.56L252.845 22.888C258.893 19.336 263.565 13.064 265.229 7.49597C264.013 7.52797 260.589 7.62397 259.405 7.65597C258.477 7.68797 256.397 7.87997 254.989 8.10397L253.773 6.15197C254.829 6.34397 256.685 6.47197 258.061 6.47197C261.165 6.50397 265.229 6.27997 267.533 5.73597Z" fill="black"/>
<path d="M309.245 23.656C310.525 18.536 311.773 10.472 311.933 5.95997C308.765 5.95997 303.293 6.21597 300.733 6.31197C299.453 6.37597 296.989 6.47197 295.485 6.75997L294.397 4.74397C296.061 4.93597 297.853 5.09597 299.165 5.09597C303.709 5.09597 310.397 4.93597 314.237 4.32797L314.813 4.87197C314.045 10.6 312.253 18.792 310.557 23.592C310.813 23.56 311.005 23.56 311.165 23.56C314.013 23.432 316.637 23.176 318.909 22.856L318.589 24.904C316.925 24.808 314.365 24.808 311.549 24.776C308.029 24.744 298.845 25.096 296.285 25.256C294.685 25.352 293.053 25.448 291.517 25.64L290.717 23.464C292.637 23.688 294.333 23.784 296.253 23.848C298.877 23.944 305.437 23.784 309.245 23.656Z" fill="black"/>
<path d="M334.172 15.08C334.62 15.048 335.036 14.984 335.42 14.952L335.004 16.648C331.708 16.424 328.22 16.488 324.668 16.648C324.668 17.096 324.604 17.544 324.508 17.928L323.292 18.12C323.1 17.288 322.908 16.168 322.844 15.112L322.332 8.07197C322.204 6.47197 321.852 6.21597 320.06 5.73597L320.412 4.93597C325.788 5.57597 329.724 5.31997 335.42 4.83997C335.068 7.20797 334.396 12.584 334.172 15.08ZM332.476 15.24L332.828 6.40797C330.172 6.27997 326.812 6.40797 324.476 6.56797L324.732 14.536C324.732 14.824 324.764 15.176 324.732 15.528C327.42 15.528 330.076 15.4 332.476 15.24ZM342.62 12.136V17C342.62 18.888 342.396 21.48 342.108 22.888L340.732 23.112C340.604 22.056 340.508 19.56 340.508 18.056V4.03997C340.508 2.63197 339.26 1.86397 336.604 1.22397L336.956 0.391968C339.036 0.647968 341.308 1.09597 342.94 1.41597C342.78 2.18397 342.62 3.23997 342.62 4.03997V10.888C344.316 10.824 346.62 10.568 348.828 10.216L348.54 12.136C346.812 12.072 344.284 12.136 342.62 12.136ZM344.956 27.272L344.604 29.192C339.388 29.064 334.012 29.224 330.236 29.448C329.084 29.512 328.604 28.872 328.604 28.04V24.2C328.604 22.248 328.348 21.96 325.884 21.32L326.236 20.52C327.484 20.68 329.596 20.904 330.876 21.096C330.812 21.608 330.716 22.632 330.716 23.4V27.048C330.716 27.944 331.036 28.136 332.252 28.168C335.452 28.232 341.308 27.816 344.956 27.272Z" fill="black"/>
<path d="M365.178 18.12V23.464C365.178 25.672 364.986 28.552 364.666 30.312L363.29 30.536C363.098 29.064 363.066 26.344 363.066 24.52V18.152C359.578 18.248 356.058 18.376 354.682 18.472C353.082 18.568 351.45 18.696 349.914 18.888L349.114 16.712C351.034 16.936 352.73 17.032 354.65 17.096C357.786 17.224 367.13 16.936 370.202 16.808C373.05 16.68 375.674 16.456 377.946 16.136L377.626 18.184C375.962 18.088 373.402 18.056 370.586 18.024C369.37 18.024 367.386 18.056 365.178 18.12ZM352.442 3.30397L352.794 2.53597C357.978 3.43197 368.89 2.88797 372.666 2.31197L372.282 4.23197C367.066 3.94397 361.05 4.10397 357.274 4.32797V10.408C357.274 11.304 357.594 11.528 358.81 11.56C362.01 11.624 368.858 11.272 372.826 10.728L372.442 12.68C367.226 12.456 360.698 12.616 356.922 12.84C355.77 12.904 355.162 12.104 355.162 11.048V6.18397C355.162 4.35997 354.778 3.94397 352.442 3.30397Z" fill="black"/>
<path d="M402.808 9.99197L402.456 11.976C397.24 11.784 390.296 12.04 386.52 12.232C385.4 12.296 384.888 11.336 384.888 10.184V5.63997C384.888 3.71997 384.28 3.30397 381.848 2.79197L382.2 1.95997C383.448 2.11997 385.848 2.31197 387.16 2.53597C387.096 3.04797 387 4.07197 387 4.83997V9.51197C387 10.44 387.288 10.92 388.536 10.952C391.736 11.016 398.84 10.536 402.808 9.99197ZM407.576 15.752L407.256 17.8C405.592 17.704 403.032 17.672 400.216 17.64C396.696 17.608 386.424 17.928 383.864 18.088C382.264 18.184 380.632 18.312 379.096 18.504L378.296 16.328C380.216 16.552 381.912 16.648 383.832 16.712C386.968 16.84 396.76 16.552 399.832 16.424C402.68 16.296 405.304 16.072 407.576 15.752ZM403.704 27.336L403.352 29.256C398.136 28.968 391 29.128 387.224 29.352C386.072 29.416 385.592 28.776 385.592 27.944V24.488C385.592 22.536 385.336 22.248 382.872 21.608L383.224 20.808C384.472 20.968 386.584 21.192 387.864 21.384C387.8 21.896 387.704 22.92 387.704 23.688V26.952C387.704 27.848 388.024 28.04 389.24 28.072C392.44 28.136 400.056 27.88 403.704 27.336Z" fill="black"/>
<path d="M20.1839 60.36V52.104C20.1839 50.824 19.0639 50.088 16.3439 49.416L16.8239 48.264C18.9039 48.52 21.9119 49.096 23.4799 49.384C23.3199 50.152 23.1279 51.752 23.1279 52.168V57.64C24.8879 57.512 27.4159 57.224 29.2719 56.904L28.9519 59.368C27.4799 59.304 24.8879 59.336 23.1279 59.336V61.864C23.1279 63.368 22.8719 66.12 22.6479 67.176L20.4399 67.496C20.3119 66.6 20.1839 64.712 20.1839 63.56V61.704C16.1199 63.304 9.97586 64.872 5.94386 65.416C3.83186 65.736 2.90386 64.904 2.90386 62.888V56.488C2.90386 54.984 2.51986 54.408 0.151855 53.768L0.695855 52.616C5.30386 53.352 12.0239 52.904 16.2479 52.232L15.7679 54.632C11.8959 54.472 8.27986 54.6 5.84786 54.792V62.312C5.84786 63.016 6.10386 63.24 6.58386 63.208C9.97586 62.984 16.0239 61.8 20.1839 60.36ZM17.4319 67.656C20.6639 68.104 22.9679 70.28 22.9679 73C22.9679 76.072 20.0239 78.408 16.1519 78.408C12.1839 78.408 9.30386 76.072 9.30386 73C9.30386 70.216 11.7039 67.976 15.0959 67.624C15.0319 67.112 14.7119 66.888 13.7519 66.568L14.2639 65.64C15.2239 65.832 16.8239 66.152 17.8479 66.376C17.6239 66.888 17.4959 67.24 17.4319 67.656ZM19.8639 72.84C19.8639 70.664 18.1679 68.968 16.1199 68.968C14.0079 68.968 12.3119 70.664 12.3119 72.84C12.3119 75.016 14.0079 76.68 16.1199 76.68C18.1999 76.68 19.8639 75.016 19.8639 72.84Z" fill="black"/>
<path d="M40.9181 58.44C43.0621 60.328 45.5901 62.312 48.5021 64.136L46.2301 66.184C44.1501 63.976 42.1661 61.896 39.9261 59.72C37.4621 62.824 34.3261 65.224 30.9021 67.304L30.1021 66.376C34.6781 63.336 38.7101 58.152 39.9901 53.896C40.2141 53.16 40.0221 53 39.8621 52.872C39.5101 52.584 38.7741 52.2 37.9101 51.784L38.6141 50.824C40.3101 51.272 42.4541 51.912 44.0861 52.52C43.2541 54.728 42.1981 56.68 40.9181 58.44ZM47.6061 49.416L48.1501 48.264C50.1661 48.52 53.1741 49.096 54.8061 49.384C54.6461 50.152 54.4541 51.752 54.4541 52.168V64.968C54.4541 66.856 54.1981 69.576 53.9101 70.984L51.7661 71.336C51.6381 70.312 51.5101 67.528 51.5101 66.024V52.104C51.5101 50.824 50.3261 50.088 47.6061 49.416ZM56.6621 74.856L56.2461 77.288C51.1581 77.16 45.5261 77.32 41.8141 77.544C40.3101 77.64 39.7021 76.84 39.7021 75.912V71.944C39.7021 70.12 39.5741 69.864 36.9821 69.224L37.5261 68.104C38.7741 68.232 41.6221 68.584 42.8381 68.776C42.8381 69.288 42.7101 70.472 42.7101 71.24V74.92C42.7101 75.688 42.8381 75.784 43.7341 75.816C46.8701 75.88 53.0781 75.4 56.6621 74.856Z" fill="black"/>
<path d="M74.8364 50.12C78.2924 50.6 80.6924 52.776 80.6924 55.432C80.6924 58.536 77.5244 60.84 73.3004 60.84C69.1084 60.84 65.9724 58.536 65.9724 55.432C65.9724 52.616 68.6604 50.344 72.4044 50.056C72.3404 49.608 71.9884 49.32 71.0924 49.032L71.5724 48.2C72.5324 48.392 74.1644 48.712 75.2524 48.904C75.1244 49.192 74.9644 49.672 74.8364 50.12ZM77.6524 55.304C77.6524 53.128 75.6684 51.368 73.3324 51.368C70.9964 51.368 69.0764 53.128 69.0764 55.304C69.0764 57.576 70.9644 59.144 73.3324 59.144C75.7324 59.144 77.6524 57.576 77.6524 55.304ZM87.9564 61.8L87.5724 64.36C85.9084 64.264 82.9964 64.2 80.2444 64.168C76.7884 64.136 66.7404 64.456 64.2444 64.616C62.7084 64.712 60.7244 64.904 59.2524 65.064L58.1964 62.344C60.0524 62.568 62.3564 62.728 64.2124 62.792C67.2844 62.92 76.8204 62.632 79.8284 62.504C82.6124 62.376 85.6844 62.088 87.9564 61.8ZM78.7404 71.208L78.8364 68.328C76.8204 68.232 72.0524 68.392 69.8764 68.552C69.0444 68.616 66.7724 68.776 65.2684 69.064L63.8284 66.568C64.7884 66.76 67.2523 67.048 68.5644 67.048C71.7324 67.08 78.3884 66.984 82.3564 66.632L81.8764 68.936L81.5244 70.984C81.8444 70.952 82.0684 70.952 82.2924 70.92L82.0684 72.872C77.3964 72.648 70.8364 72.872 68.7564 72.968C68.7244 73.352 68.7244 73.704 68.7244 74.024V75.336C68.7244 76.008 68.7243 76.008 69.5244 76.04C72.5644 76.136 80.2444 75.72 83.7644 75.144L83.2204 77.64C78.6764 77.48 71.4444 77.608 67.7004 77.768C66.2284 77.864 65.7484 77.064 65.7484 76.008V74.472C65.7484 72.968 65.4604 72.712 63.4444 72.072L63.9564 71.112C68.2444 71.56 74.3564 71.432 78.7404 71.208Z" fill="black"/>
<path d="M109.668 51.592C112.996 52.072 115.332 54.344 115.332 57.032C115.332 60.296 112.292 62.664 108.26 62.664C104.164 62.664 101.22 60.296 101.22 57.032C101.22 54.216 103.748 51.848 107.332 51.56C107.268 51.048 106.948 50.76 106.148 50.536L106.596 49.608C107.492 49.768 109.124 50.056 110.116 50.28C109.924 50.76 109.764 51.208 109.668 51.592ZM112.324 56.968C112.324 54.76 110.468 52.904 108.324 52.904C106.212 52.904 104.356 54.76 104.356 56.968C104.356 59.368 106.18 60.904 108.324 60.904C110.564 60.904 112.324 59.368 112.324 56.968ZM110.276 66.536V70.536C110.276 72.712 110.116 75.72 109.796 77.48L107.588 77.832C107.396 76.392 107.332 73.384 107.332 71.56V66.888C106.116 67.016 104.964 67.144 103.908 67.208C103.012 67.272 100.42 67.528 99.0124 67.784L97.4764 65C98.7884 65.224 101.156 65.416 102.532 65.384C108.292 65.256 114.788 64.456 119.556 63.432V52.104C119.556 50.824 118.372 50.088 115.652 49.416L116.196 48.264C118.212 48.52 121.22 49.096 122.82 49.384C122.692 50.152 122.5 51.752 122.5 52.168V69.48C122.5 72.04 122.244 76.616 121.924 78.472L119.78 78.76C119.684 77.384 119.556 74.12 119.556 71.72V64.808C116.612 65.512 113.348 66.12 110.276 66.536Z" fill="black"/>
<path d="M149.539 61.8V64.968C149.539 66.856 149.283 69.576 149.059 70.984L146.851 71.336C146.723 70.312 146.595 67.528 146.595 66.024V52.104C146.595 50.824 145.475 50.088 142.755 49.416L143.235 48.264C145.315 48.52 148.323 49.096 149.891 49.384C149.731 50.152 149.539 51.752 149.539 52.168V60.072C151.299 59.944 153.827 59.656 155.651 59.336L155.363 61.8C153.891 61.768 151.299 61.8 149.539 61.8ZM151.907 74.856L151.491 77.288C146.339 77.16 140.707 77.32 136.995 77.544C135.555 77.64 134.947 76.84 134.947 75.912V72.68C134.947 70.856 134.755 70.6 132.227 69.96L132.771 68.808C133.955 68.968 136.803 69.32 138.083 69.512C138.019 70.024 137.891 71.208 137.891 71.944V74.92C137.891 75.688 138.051 75.784 138.979 75.816C142.115 75.88 148.323 75.4 151.907 74.856ZM142.339 62.6C142.339 65.384 139.491 67.688 135.779 67.688C132.131 67.688 129.251 65.32 129.251 62.6C129.251 59.624 132.163 57.512 135.779 57.512C139.651 57.512 142.339 59.912 142.339 62.6ZM132.387 62.472C132.387 64.456 133.891 66.088 135.811 66.088C137.667 66.088 139.235 64.52 139.235 62.472C139.235 60.616 137.763 58.92 135.811 58.92C133.891 58.92 132.387 60.392 132.387 62.472ZM144.931 53.704L144.547 56.008C141.731 55.976 134.371 56.168 131.747 56.296C130.723 56.36 128.291 56.584 127.267 56.744L126.083 54.184C127.203 54.408 129.635 54.664 130.755 54.664C133.571 54.632 140.835 54.44 144.931 53.704ZM140.419 50.472L139.907 52.456C138.531 52.424 136.419 52.52 135.299 52.52C134.723 52.52 132.963 52.648 131.875 52.808L130.595 50.44C131.587 50.664 133.827 50.952 134.883 50.952C135.907 50.952 138.531 50.728 140.419 50.472Z" fill="black"/>
<path d="M175.283 54.952C175.379 54.376 175.539 53.8 175.699 53.448C174.739 53.224 172.563 52.776 171.603 52.552L171.091 53.704C172.051 54.024 172.339 54.344 172.371 54.92C168.467 55.304 165.779 58.024 165.779 61.32C165.779 65.064 169.043 67.88 173.587 67.88C177.683 67.88 180.819 65.416 181.203 62.12C182.995 61.864 184.563 61.736 185.939 61.608V71.656C185.939 74.056 186.067 77.48 186.291 78.856L188.883 78.472C189.203 76.616 189.491 71.976 189.491 69.416V52.264C189.491 52.136 189.715 50.12 189.843 49.352C188.243 49.096 184.659 48.424 182.739 48.168L182.035 49.544C184.787 50.216 185.939 50.952 185.939 52.136V59.816C185.011 59.88 183.923 59.912 183.283 59.944C182.803 59.976 181.939 59.912 181.107 59.784C180.499 57.416 178.195 55.464 175.283 54.952ZM177.715 61.224C177.715 63.848 175.891 65.672 173.651 65.672C171.443 65.672 169.427 63.848 169.427 61.224C169.427 58.664 171.443 56.68 173.651 56.68C175.891 56.68 177.715 58.664 177.715 61.224Z" fill="black"/>
<path d="M215.249 57.832V61.352C215.249 62.472 215.377 64.584 215.505 65.416L218.225 65.096C218.449 64.008 218.769 61.16 218.769 59.656V52.264C218.769 52.136 219.025 50.12 219.153 49.352C217.553 49.096 213.969 48.424 212.049 48.168L211.345 49.544C214.097 50.216 215.249 50.952 215.249 52.136V56.04C214.673 56.072 214.001 56.136 213.489 56.104C212.305 56.136 210.193 55.976 209.041 55.816L210.193 58.6C211.505 58.184 213.521 57.928 215.249 57.832ZM207.953 63.624C210.225 63.24 212.529 62.28 214.833 61.224L214.385 59.72C212.721 60.328 209.873 61.16 208.529 61.288C208.305 61.288 208.081 61.192 208.081 60.552V53.704C209.681 53.608 211.249 53.672 213.073 53.64L213.553 51.176C209.745 51.88 207.985 51.944 204.849 51.624C201.617 52.232 198.193 52.136 195.153 51.656L194.481 53.032C196.945 53.64 197.329 54.184 197.329 55.624V61.416C197.329 63.464 198.225 64.488 200.753 64.04C202.769 63.592 203.345 63.4 204.881 62.632C205.009 63.304 206.161 64.04 207.953 63.624ZM204.625 60.712C203.281 61.224 202.161 61.576 201.105 61.672C200.945 61.64 200.817 61.576 200.817 60.936V54.088C202.097 53.928 202.897 53.896 204.529 53.896C204.497 53.896 204.625 54.632 204.625 55.4V60.712ZM214.257 64.136C212.433 64.392 209.361 64.648 208.337 64.648C207.441 64.648 204.689 64.424 203.761 64.2L205.169 66.824C206.225 66.696 208.177 66.568 208.753 66.568C209.873 66.568 212.369 66.472 213.681 66.504L214.257 64.136ZM220.081 66.472C215.281 67.048 206.769 67.624 203.889 67.624C202.609 67.624 199.601 67.464 198.417 67.176L199.665 70.056C200.689 69.896 203.505 69.608 204.465 69.544C206.801 69.416 216.209 69.032 219.505 69.224L220.081 66.472ZM216.305 74.248C216.305 71.784 213.585 69.544 209.873 69.544C206.161 69.544 203.377 71.464 203.377 74.248C203.377 76.648 206.161 78.76 209.873 78.76C213.489 78.76 216.305 76.712 216.305 74.248ZM207.217 74.088C207.217 72.424 208.401 71.368 209.905 71.368C211.249 71.368 212.529 72.648 212.529 74.088C212.529 75.624 211.249 76.84 209.905 76.84C208.465 76.84 207.217 75.56 207.217 74.088Z" fill="black"/>
<path d="M237.103 54.024C234.255 54.696 231.951 54.888 228.943 54.856C227.663 54.856 225.647 54.6 223.983 54.312L225.743 57.288C227.407 57.064 229.423 56.808 230.319 56.744C231.503 56.68 232.975 56.648 233.807 56.616C232.431 61.544 229.135 66.984 223.663 70.952L224.783 71.976C231.727 67.432 235.791 62.504 238.159 55.144L237.103 54.024ZM240.047 70.568C240.047 72.872 240.175 75.944 240.303 77.704L242.895 77.32C243.247 75.144 243.535 70.824 243.535 68.296V53.608C243.535 53.192 243.727 51.592 243.919 50.728C242.063 50.312 239.823 49.896 237.519 49.608L236.847 51.08C239.471 51.752 240.047 52.36 240.047 53.608V61.992C239.471 62.056 238.703 62.088 237.999 62.12C237.007 62.152 235.695 62.024 233.903 61.608L235.375 64.552C237.167 64.2 238.575 64.008 240.047 63.944V70.568ZM242.063 49.736C244.911 50.44 245.615 51.016 245.615 52.296V71.624C245.615 73.96 245.775 77 245.903 78.824L248.559 78.44C248.911 76.2 249.167 71.944 249.167 69.416V52.264C249.167 51.848 249.359 50.344 249.551 49.48C247.695 49.064 245.071 48.52 242.735 48.2L242.063 49.736Z" fill="black"/>
<path d="M255.597 51.496C258.061 52.168 258.317 52.488 258.317 54.12V59.048C258.317 60.296 259.149 61.384 260.781 61.256C264.461 60.968 270.861 60.872 275.885 61.16L276.461 58.312C272.589 58.792 265.709 59.24 262.637 59.208C261.869 59.176 261.869 59.144 261.869 58.472V52.712C265.485 52.488 270.733 52.488 275.725 52.712L276.237 49.928C272.621 50.504 261.645 51.112 256.301 50.152L255.597 51.496ZM281.773 63.624C279.469 63.944 276.109 64.296 273.357 64.424C270.381 64.52 261.005 64.808 257.997 64.744C256.141 64.616 253.453 64.424 251.629 64.2L252.877 67.304C254.317 67.112 256.557 66.888 258.029 66.792C260.461 66.632 270.381 66.28 273.773 66.376C276.493 66.408 279.629 66.472 281.293 66.568L281.773 63.624ZM277.997 74.728C274.477 75.304 266.317 75.624 263.213 75.56C262.605 75.528 262.573 75.496 262.573 74.824V71.88C262.573 71.144 262.701 69.832 262.765 69.352C261.453 69.16 258.125 68.744 256.877 68.52L256.269 69.96C258.893 70.6 259.021 70.824 259.021 72.552V75.816C259.021 76.808 259.629 77.736 261.357 77.608C265.037 77.384 272.461 77.288 277.517 77.576L277.997 74.728Z" fill="black"/>
<path d="M309.373 59.848C306.109 59.944 300.637 60.104 297.469 60.104C295.613 60.104 292.125 59.912 289.629 59.592C290.013 60.648 290.461 61.672 290.877 62.696C292.285 62.536 294.557 62.216 295.997 62.152C298.173 61.992 306.269 61.768 310.461 61.768C313.373 61.768 317.341 61.864 319.293 61.96C319.421 60.936 319.581 60.008 319.741 59.016C317.789 59.24 314.781 59.56 312.381 59.72C313.597 56.648 314.237 53.544 314.781 50.728C314.429 50.376 314.109 50.12 313.789 49.768C310.109 50.344 304.125 50.632 299.773 50.632C298.493 50.632 295.741 50.408 294.141 50.216C294.685 51.24 295.197 52.232 295.709 53.192C297.533 52.744 300.093 52.488 301.309 52.456C303.869 52.232 307.421 52.264 310.461 52.264C310.429 54.6 309.949 57.352 309.373 59.848ZM309.853 70.152C307.741 70.248 305.309 70.312 302.845 70.312C300.157 70.312 297.437 70.216 295.261 70.024C295.069 70.376 294.813 70.792 294.653 71.176C296.733 71.784 296.989 72.04 296.989 73.512V75.88C296.989 76.968 297.437 77.8 298.973 77.8C301.405 77.8 305.821 77.608 309.821 77.608C311.645 77.608 313.405 77.64 314.845 77.672C315.069 76.712 315.261 75.752 315.453 74.824C312.285 75.368 305.277 75.784 301.853 75.784C300.605 75.784 300.541 75.912 300.541 75.208C300.541 72.84 300.509 72.712 300.509 72.52C300.509 72.424 300.541 72.296 300.541 72.168C301.853 72.104 304.893 72.04 308.125 72.04C310.045 72.04 311.997 72.072 313.693 72.136C313.757 71.368 313.917 70.536 313.981 69.768C313.789 69.8 313.533 69.8 313.245 69.832C313.405 68.264 313.757 65.608 314.077 64.776C310.557 65.128 304.541 65.224 301.085 65.224C300.445 65.224 296.413 64.936 294.845 64.808C295.421 65.736 295.997 66.664 296.605 67.592C298.109 67.304 300.605 67.112 301.373 67.048C303.101 66.92 306.173 66.792 308.413 66.792C308.989 66.792 309.501 66.792 309.949 66.824C309.917 67.944 309.885 69 309.853 70.152Z" fill="black"/>
<path d="M334.332 61.128C332.924 60.264 331.42 59.24 330.236 58.312C331.356 56.648 332.284 54.792 332.924 52.744C331.516 52.264 328.796 51.592 327.452 51.208L326.748 52.392C327.228 52.648 327.932 53 328.316 53.16C328.764 53.352 328.86 53.736 328.572 54.472C327.548 57.992 324.188 63.08 320.892 65.576L321.98 66.568C324.828 64.648 327.196 62.568 329.212 59.912L332.732 63.368C331.868 64.488 330.94 65.544 329.884 66.504L330.876 67.336C333.852 65.32 336.508 62.696 338.492 59.656L344.7 65.544L347.26 63.08C345.308 62.28 341.916 60.072 339.516 58.12C340.668 56.2 341.5 54.248 342.076 52.264C340.252 51.72 337.788 51.048 336.316 50.664L335.58 51.848C336.476 52.264 337.148 52.616 337.596 53C337.788 53.096 337.788 53.64 337.66 53.992C337.02 56.04 335.868 58.632 334.332 61.128ZM348.7 70.536C346.46 70.856 343.036 71.144 340.284 71.336C337.34 71.464 329.084 71.72 326.044 71.592C324.124 71.528 321.5 71.336 319.676 71.08L320.828 74.216C322.364 74.056 324.476 73.864 326.076 73.768C328.508 73.608 337.34 73.256 340.7 73.288C343.484 73.32 346.588 73.352 348.252 73.448L348.7 70.536Z" fill="black"/>
<path d="M365.754 53.448C363.29 53.992 359.034 54.28 356.026 54.248C354.65 54.248 351.77 53.992 350.714 53.832L352.57 56.68C353.882 56.456 356.442 56.168 357.274 56.136C358.458 56.104 361.082 56.04 362.298 56.008C360.922 60.84 356.154 67.272 350.202 70.76L351.29 71.88C358.138 68.488 364.41 61.896 366.842 54.568L365.754 53.448ZM366.554 49.544C369.338 50.216 370.458 50.952 370.458 52.136V71.656C370.458 74.056 370.618 77.48 370.746 78.856L373.402 78.472C373.722 76.616 374.01 71.976 374.01 69.416V52.264C374.01 52.136 374.202 50.12 374.33 49.352C372.73 49.096 369.21 48.424 367.226 48.168L366.554 49.544Z" fill="black"/>
</svg>
