<svg width="43" height="16" viewBox="0 0 43 16" fill="none" xmlns="http://www.w3.org/2000/svg">
<path d="M8.4 12.032V9.84H12.864V8.144H4.32V6.496H12.528V1.584H2.208V3.264H10.448V4.848H2.224V9.84H6.288V12.032H0.688V13.76H14.032V12.032H8.4ZM24.9908 3.744C24.9908 5.744 24.9908 7.84 24.4628 10.656L26.5588 10.848C27.1028 7.824 27.1028 5.808 27.1028 3.744V2H16.7828V3.68H24.9908V3.744ZM15.4068 11.728V13.456H28.7348V11.728H15.4068ZM42.3655 0.655999H40.2375V11.232H42.3655V0.655999ZM32.3975 5.328C32.3975 4.112 33.2615 3.408 34.3495 3.408C35.4535 3.408 36.2855 4.112 36.2855 5.328C36.2855 6.512 35.4535 7.232 34.3495 7.232C33.2615 7.232 32.3975 6.512 32.3975 5.328ZM38.3495 5.328C38.3495 3.152 36.6055 1.584 34.3495 1.584C32.0935 1.584 30.3335 3.152 30.3335 5.328C30.3335 7.472 32.0935 9.056 34.3495 9.056C36.6055 9.056 38.3495 7.472 38.3495 5.328ZM34.6695 13.44V10.192H32.5575V15.12H42.7335V13.44H34.6695Z" fill="black"/>
</svg>
