<svg width="423" height="318" viewBox="0 0 423 318" fill="none" xmlns="http://www.w3.org/2000/svg">
<path d="M150.037 225.453C179.542 219.55 203.141 211.604 202.744 207.706C202.348 203.808 178.109 205.439 148.602 211.332C136.234 213.807 124.904 216.641 115.944 219.384L133.916 228.345C139.014 227.54 144.43 226.573 150.037 225.453Z" fill="black" stroke="black" stroke-width="2" stroke-miterlimit="10"/>
<path d="M98.7142 226.031C111.988 223.803 122.362 219.685 121.884 216.832C121.406 213.98 110.257 213.473 96.9833 215.701C83.7091 217.929 73.3357 222.048 73.8137 224.9C74.2917 227.753 85.44 228.259 98.7142 226.031Z" fill="black" stroke="black" stroke-width="2" stroke-miterlimit="10"/>
<path d="M128.502 184.55C122.904 183.566 117.177 183.566 111.578 184.55H104.056V226.329C104.056 229.022 111.212 231.204 120.039 231.204C128.866 231.204 136.024 229.022 136.024 226.329V184.55H128.502Z" fill="#92B193" stroke="black" stroke-width="2" stroke-linejoin="round"/>
<path d="M120.039 189.055C128.867 189.055 136.023 186.872 136.023 184.18C136.023 181.488 128.867 179.306 120.039 179.306C111.212 179.306 104.056 181.488 104.056 184.18C104.056 186.872 111.212 189.055 120.039 189.055Z" fill="#92B193" stroke="black" stroke-width="2" stroke-linejoin="round"/>
<path d="M127.218 179.387C122.472 178.552 117.617 178.552 112.871 179.387H106.478V182.827C106.478 185.112 112.55 186.963 120.039 186.963C127.528 186.963 133.602 185.112 133.602 182.827V179.387H127.218Z" fill="#92B193" stroke="black" stroke-width="2" stroke-linejoin="round"/>
<path d="M128.502 162.169C122.904 161.184 117.177 161.184 111.578 162.169H104.056V179.665C104.056 182.357 111.212 184.539 120.039 184.539C128.866 184.539 136.024 182.357 136.024 179.665V162.169H128.502Z" fill="#92B193" stroke="black" stroke-width="2" stroke-linejoin="round"/>
<path d="M120.039 166.674C128.867 166.674 136.023 164.491 136.023 161.799C136.023 159.107 128.867 156.925 120.039 156.925C111.212 156.925 104.056 159.107 104.056 161.799C104.056 164.491 111.212 166.674 120.039 166.674Z" fill="#92B193" stroke="black" stroke-width="2" stroke-linejoin="round"/>
<path d="M127.218 157.304C122.472 156.469 117.617 156.469 112.871 157.304H106.478V160.427C106.478 162.712 112.55 164.563 120.039 164.563C127.528 164.563 133.602 162.712 133.602 160.427V157.304H127.218Z" fill="#92B193" stroke="black" stroke-width="2" stroke-linejoin="round"/>
<path d="M131.169 154.614C123.806 153.319 116.274 153.319 108.911 154.614H99.0156V156.365C99.0156 159.906 108.428 162.776 120.039 162.776C131.651 162.776 141.065 159.906 141.065 156.365V154.614H131.169Z" fill="#92B193" stroke="black" stroke-width="2" stroke-linejoin="round"/>
<path d="M120.039 160.541C131.65 160.541 141.063 157.67 141.063 154.128C141.063 150.587 131.65 147.716 120.039 147.716C108.428 147.716 99.0156 150.587 99.0156 154.128C99.0156 157.67 108.428 160.541 120.039 160.541Z" fill="#92B193" stroke="black" stroke-width="2" stroke-linejoin="round"/>
<path d="M111.252 153.414C111.252 150.941 118.637 148.617 127.83 148.166C125.245 147.859 122.643 147.707 120.039 147.712C108.428 147.712 99.0156 150.582 99.0156 154.123C99.0156 157.663 108.428 160.535 120.039 160.535C130.407 160.535 139.019 158.247 140.748 155.245C137.642 156.278 133.197 157.032 128.247 157.244C118.861 157.641 111.252 155.931 111.252 153.414Z" fill="#92B193" stroke="black" stroke-width="2" stroke-linejoin="round"/>
<path d="M127.83 148.171C118.637 148.623 111.252 150.947 111.252 153.42C111.252 155.931 118.861 157.641 128.242 157.242C133.187 157.03 137.637 156.277 140.742 155.243C140.944 154.906 141.054 154.521 141.059 154.128C141.065 151.427 135.585 149.116 127.83 148.171Z" fill="black" stroke="black" stroke-width="2" stroke-linejoin="round"/>
<path d="M377.32 218.906C376.79 213.68 350.376 214.451 314.417 220.121L344.149 234.947C364.689 228.657 377.7 222.653 377.32 218.906Z" fill="black" stroke="black" stroke-width="2" stroke-miterlimit="10"/>
<path d="M186.289 280.226C189.68 281.207 193.268 281.283 196.698 280.448C196.698 280.448 308.403 252.763 343.317 244.291C353.382 241.848 363.666 238.727 354.392 233.979L341.442 227.429" fill="black"/>
<path d="M186.289 280.226C189.68 281.207 193.268 281.283 196.698 280.448C196.698 280.448 308.403 252.763 343.317 244.291C353.382 241.848 363.666 238.727 354.392 233.979L341.442 227.429" stroke="black" stroke-width="2" stroke-miterlimit="10"/>
<path d="M350.8 221.769L346.874 215.517L281.972 183.232C281.605 183.014 281.223 182.824 280.828 182.665H280.807C279.297 182.06 277.634 181.952 276.059 182.355L124.604 219.919C120.721 220.882 117.242 224.582 115.732 229.284C114.958 231.715 114.658 234.273 114.848 236.817C115.226 241.814 117.448 245.74 120.512 247.586L120.542 247.601C120.904 247.82 121.283 248.009 121.674 248.168L186.49 280.31L342.379 242.289L349.334 239.031L352.716 229.995L350.8 221.769Z" fill="#3D393B" stroke="black" stroke-width="2" stroke-miterlimit="10"/>
<path opacity="0.23" d="M350.8 221.769L346.874 215.517L281.972 183.232C281.605 183.014 281.223 182.824 280.828 182.665H280.807C279.297 182.06 277.634 181.952 276.059 182.355L124.604 219.919C120.721 220.882 117.242 224.582 115.732 229.284C114.958 231.715 114.658 234.273 114.848 236.817C115.226 241.814 117.448 245.74 120.512 247.586L120.542 247.601C120.904 247.82 121.283 248.009 121.674 248.168L186.49 280.31L342.379 242.289L349.334 239.031L352.716 229.995L350.8 221.769Z" stroke="black" stroke-width="2" stroke-miterlimit="10"/>
<path d="M352.773 226.429C352.178 218.538 346.983 213.31 341.171 214.751L189.718 252.321C183.905 253.762 179.675 261.327 180.279 269.219C180.876 277.111 186.071 282.339 191.883 280.897L343.334 243.328C349.141 241.886 353.369 234.319 352.773 226.429Z" fill="#2B2720" stroke="black" stroke-width="2" stroke-miterlimit="10"/>
<path d="M352.773 226.429C352.178 218.538 346.983 213.31 341.171 214.751L189.718 252.321C183.905 253.762 179.675 261.327 180.279 269.219C180.876 277.111 186.071 282.339 191.883 280.897L343.334 243.328C349.141 241.886 353.369 234.319 352.773 226.429ZM343.24 240.373L191.522 278.008C186.898 279.155 182.765 274.997 182.29 268.718C181.816 262.44 185.182 256.423 189.805 255.276L341.524 217.64C346.149 216.493 350.281 220.652 350.755 226.93C351.229 233.208 347.865 239.226 343.24 240.373Z" fill="#3D393B" stroke="black" stroke-width="2" stroke-miterlimit="10"/>
<path d="M247.397 262.183L220.147 247.749L250.493 240.222" fill="#6B6B6A"/>
<path d="M247.397 262.183L220.147 247.749L250.493 240.222" stroke="black" stroke-width="2" stroke-miterlimit="10"/>
<path d="M277.741 254.658L250.493 240.222L280.837 232.695" fill="#6B6B6A"/>
<path d="M277.741 254.658L250.493 240.222L280.837 232.695" stroke="black" stroke-width="2" stroke-miterlimit="10"/>
<path d="M308.086 247.133L280.837 232.696L311.182 225.171" fill="#6B6B6A"/>
<path d="M308.086 247.133L280.837 232.696L311.182 225.171" stroke="black" stroke-width="2" stroke-miterlimit="10"/>
<path d="M338.367 239.636L311.119 225.2L341.463 217.674" fill="#6B6B6A"/>
<path d="M338.367 239.636L311.119 225.2L341.463 217.674" stroke="black" stroke-width="2" stroke-miterlimit="10"/>
<path d="M217.173 269.788L189.926 255.351L220.269 247.824" fill="#6B6B6A"/>
<path d="M217.173 269.788L189.926 255.351L220.269 247.824" stroke="black" stroke-width="2" stroke-miterlimit="10"/>
<path d="M259.635 252.564C260.399 246.206 257.301 240.604 252.716 240.052C248.13 239.5 243.793 244.207 243.029 250.565C242.265 256.922 245.363 262.524 249.948 263.076C254.534 263.628 258.871 258.922 259.635 252.564Z" fill="#929292" stroke="black" stroke-width="2" stroke-miterlimit="10"/>
<path d="M289.976 245.037C290.74 238.68 287.642 233.078 283.057 232.526C278.471 231.974 274.134 236.68 273.37 243.038C272.606 249.396 275.704 254.997 280.289 255.549C284.875 256.102 289.211 251.395 289.976 245.037Z" fill="#929292" stroke="black" stroke-width="2" stroke-miterlimit="10"/>
<path d="M320.316 237.511C321.08 231.153 317.982 225.551 313.396 224.999C308.811 224.447 304.474 229.153 303.71 235.511C302.946 241.869 306.043 247.471 310.629 248.023C315.214 248.575 319.551 243.869 320.316 237.511Z" fill="#929292" stroke="black" stroke-width="2" stroke-miterlimit="10"/>
<path d="M350.659 229.984C351.424 223.626 348.326 218.025 343.74 217.472C339.155 216.92 334.818 221.627 334.054 227.985C333.289 234.342 336.387 239.944 340.973 240.496C345.558 241.048 349.895 236.342 350.659 229.984Z" fill="#929292" stroke="black" stroke-width="2" stroke-miterlimit="10"/>
<path d="M267.288 184.467L332.696 216.854V219.83" stroke="black" stroke-width="2" stroke-miterlimit="10"/>
<path d="M235.722 192.289L301.141 224.68V227.661" stroke="black" stroke-width="2" stroke-miterlimit="10"/>
<path d="M204.156 200.111L269.587 232.508V235.485" stroke="black" stroke-width="2" stroke-miterlimit="10"/>
<path d="M172.591 207.933L238.033 240.335V243.313" stroke="black" stroke-width="2" stroke-miterlimit="10"/>
<path d="M141.025 215.755L206.479 248.163V251.203" stroke="black" stroke-width="2" stroke-miterlimit="10"/>
<path d="M116.577 227.125L181.997 259.517L183.824 260.668" fill="#4D4D4D"/>
<path d="M116.577 227.125L181.997 259.517L183.824 260.668" stroke="black" stroke-width="2" stroke-miterlimit="10"/>
<path d="M229.294 260.091C230.058 253.733 226.961 248.131 222.375 247.579C217.789 247.027 213.453 251.734 212.688 258.091C211.924 264.449 215.022 270.051 219.607 270.603C224.193 271.155 228.53 266.449 229.294 260.091Z" fill="#929292" stroke="black" stroke-width="2" stroke-miterlimit="10"/>
<path d="M198.954 267.618C199.718 261.26 196.621 255.658 192.035 255.106C187.45 254.554 183.113 259.26 182.349 265.618C181.584 271.976 184.682 277.578 189.268 278.13C193.853 278.682 198.19 273.975 198.954 267.618Z" fill="#929292" stroke="black" stroke-width="2" stroke-miterlimit="10"/>
<path d="M193.324 266.94C193.57 264.893 192.573 263.089 191.097 262.911C189.621 262.733 188.225 264.249 187.979 266.296C187.733 268.343 188.73 270.147 190.206 270.324C191.682 270.502 193.078 268.987 193.324 266.94Z" fill="#929292" stroke="black" stroke-width="2" stroke-miterlimit="10"/>
<path d="M223.664 259.413C223.91 257.366 222.913 255.562 221.437 255.385C219.961 255.207 218.565 256.722 218.319 258.769C218.073 260.817 219.07 262.62 220.546 262.798C222.022 262.976 223.418 261.46 223.664 259.413Z" fill="#929292" stroke="black" stroke-width="2" stroke-miterlimit="10"/>
<path d="M254.005 251.886C254.251 249.839 253.254 248.036 251.778 247.858C250.302 247.68 248.905 249.196 248.659 251.243C248.413 253.29 249.41 255.093 250.886 255.271C252.362 255.449 253.759 253.933 254.005 251.886Z" fill="#929292" stroke="black" stroke-width="2" stroke-miterlimit="10"/>
<path d="M284.345 244.36C284.591 242.312 283.594 240.509 282.118 240.331C280.642 240.153 279.246 241.669 279 243.716C278.754 245.763 279.751 247.567 281.227 247.744C282.703 247.922 284.099 246.407 284.345 244.36Z" fill="#929292" stroke="black" stroke-width="2" stroke-miterlimit="10"/>
<path d="M314.686 236.833C314.932 234.786 313.935 232.982 312.459 232.804C310.983 232.627 309.587 234.142 309.341 236.189C309.095 238.236 310.092 240.04 311.568 240.218C313.044 240.395 314.44 238.88 314.686 236.833Z" fill="#929292" stroke="black" stroke-width="2" stroke-miterlimit="10"/>
<path d="M345.029 229.306C345.275 227.259 344.278 225.455 342.802 225.278C341.326 225.1 339.93 226.615 339.684 228.663C339.438 230.71 340.435 232.513 341.911 232.691C343.387 232.869 344.783 231.353 345.029 229.306Z" fill="#929292" stroke="black" stroke-width="2" stroke-miterlimit="10"/>
<path d="M269.455 194.999C220.64 204.764 181.598 217.909 182.253 224.361C182.908 230.813 223.011 228.124 271.828 218.36C292.291 214.266 311.035 209.579 325.859 205.038L296.125 190.215C287.691 191.545 278.73 193.143 269.455 194.999Z" fill="black" stroke="black" stroke-width="2" stroke-miterlimit="10"/>
<path d="M285.581 161.474C285.581 161.474 286.636 150.327 283.346 145.456C282.768 145.789 282.23 146.116 281.758 146.384C279.253 147.801 270.054 149.396 269.442 149.554L269.718 159.645C269.718 159.645 275.73 159.422 278.894 159.711C279.24 159.746 279.573 159.859 279.868 160.042C280.503 159.708 282.115 158.935 283.632 158.829C284.725 161.117 285.581 161.474 285.581 161.474Z" fill="#C5D7EA" stroke="black" stroke-width="2" stroke-miterlimit="10"/>
<path d="M291.509 161.538C289.667 156.492 292.842 148.715 290.754 145.29C289.055 142.501 285.846 144.03 283.354 145.462C286.645 150.323 285.589 161.48 285.589 161.48C285.589 161.48 284.734 161.123 283.641 158.835C282.131 158.941 280.511 159.713 279.877 160.048C282.342 161.519 283.666 167.478 288.234 171.119C293.369 175.208 297.639 174.22 297.827 172.088C298.016 169.957 293.354 166.59 291.509 161.538Z" fill="#F4EED8" stroke="black" stroke-width="2" stroke-miterlimit="10"/>
<path d="M212.916 137.572C212.916 137.572 226.696 161.637 231.189 164.212C235.682 166.787 267.158 164.89 271.005 163.099C274.853 161.308 277.424 158.742 276.774 152.645C276.125 146.548 271.821 145.337 268.687 145.466C265.554 145.594 241.449 150.418 239.846 148.489C241.449 146.244 231.102 115.763 231.102 115.763" fill="#5A8BBA"/>
<path d="M212.916 137.572C212.916 137.572 226.696 161.637 231.189 164.212C235.682 166.787 267.158 164.89 271.005 163.099C274.853 161.308 277.424 158.742 276.774 152.645C276.125 146.548 271.821 145.337 268.687 145.466C265.554 145.594 241.449 150.418 239.846 148.489C241.449 146.244 231.102 115.763 231.102 115.763" stroke="black" stroke-width="2" stroke-miterlimit="10"/>
<path d="M198.694 77.3343C198.694 77.3343 187.394 82.171 181.997 83.6674C176.6 85.1637 166.471 86.5505 164.762 87.1929C163.054 87.8353 163.097 87.873 162.059 85.0088C161.115 82.411 154.625 67.4663 154.099 65.0687C153.819 63.7896 152.143 59.3119 151.467 58.4315C150.791 57.5511 142.917 59.703 142.285 60.4191C141.653 61.1351 142.663 66.4971 143.505 69.1554C144.347 71.8137 147.605 84.0093 148.024 86.1065C148.732 89.6509 152.787 97.5861 154.114 99.0107C155.773 100.792 161.782 101.427 164.821 101.006C167.97 100.571 189.939 100.783 199.517 96.0935" fill="#E6AB55"/>
<path d="M198.694 77.3343C198.694 77.3343 187.394 82.171 181.997 83.6674C176.6 85.1637 166.471 86.5505 164.762 87.1929C163.054 87.8353 163.097 87.873 162.059 85.0088C161.115 82.411 154.625 67.4663 154.099 65.0687C153.819 63.7896 152.143 59.3119 151.467 58.4315C150.791 57.5511 142.917 59.703 142.285 60.4191C141.653 61.1351 142.663 66.4971 143.505 69.1554C144.347 71.8137 147.605 84.0093 148.024 86.1065C148.732 89.6509 152.787 97.5861 154.114 99.0107C155.773 100.792 161.782 101.427 164.821 101.006C167.97 100.571 189.939 100.783 199.517 96.0935" stroke="black" stroke-width="2" stroke-miterlimit="10"/>
<path d="M190.186 94.2364C193.07 102.57 196.906 112.332 196.906 112.332L215.821 122.172L235.516 112.982C235.516 112.982 234.345 107.692 229.664 93.8056C224.438 78.313 204.638 73.4612 194.775 79.0008" fill="#E6AB55"/>
<path d="M190.186 94.2364C193.07 102.57 196.906 112.332 196.906 112.332L215.821 122.172L235.516 112.982C235.516 112.982 234.345 107.692 229.664 93.8056C224.438 78.313 204.638 73.4612 194.775 79.0008" stroke="black" stroke-width="2" stroke-miterlimit="10"/>
<path d="M280.672 107.488C280.672 107.488 282.616 112.831 285.267 115.206C287.917 117.581 288.902 118.104 288.884 116.944C288.859 115.433 286.026 111.996 287.103 111.482C288.723 113.145 291.426 115.571 293.265 119.404C295.104 123.238 295.997 119.822 295.997 119.822C295.997 119.822 296.703 120.608 297.431 120.402C298.251 120.169 298.041 117.568 298.041 117.568C298.041 117.568 299.427 118.369 299.574 117.454C299.721 116.54 299.008 114.528 299.008 114.528C299.008 114.528 299.872 114.685 300.102 114.15C300.333 113.615 298.592 105.603 285.138 101.274" fill="#FFDF8C"/>
<path d="M280.672 107.488C280.672 107.488 282.616 112.831 285.267 115.206C287.917 117.581 288.902 118.104 288.884 116.944C288.859 115.433 286.026 111.996 287.103 111.482C288.723 113.145 291.426 115.571 293.265 119.404C295.104 123.238 295.997 119.822 295.997 119.822C295.997 119.822 296.703 120.608 297.431 120.402C298.251 120.169 298.041 117.568 298.041 117.568C298.041 117.568 299.427 118.369 299.574 117.454C299.721 116.54 299.008 114.528 299.008 114.528C299.008 114.528 299.872 114.685 300.102 114.15C300.333 113.615 298.592 105.603 285.138 101.274" stroke="black" stroke-width="2" stroke-miterlimit="10"/>
<path d="M202.743 76.7241C202.743 76.7241 208.701 74.6949 220.027 75.6793C222.198 75.8682 223.297 76.2272 225.657 76.2196C240.037 76.1667 256.572 76.6882 260.455 79.2123C267.644 83.8828 287.638 98.7311 287.433 101.299C287.227 103.866 284.743 107.199 282.177 108.695C279.612 110.192 276.892 107.547 273.682 104.786C269.882 101.518 268.127 101.14 265.133 99.4282C262.139 97.7165 253.829 91.5478 253.829 91.5478C253.829 91.5478 238.769 92.8514 235.518 92.9497C227.967 93.1745 227.946 94.8031 227.946 94.8031" fill="#E6AB55"/>
<path d="M202.743 76.7241C202.743 76.7241 208.701 74.6949 220.027 75.6793C222.198 75.8682 223.297 76.2272 225.657 76.2196C240.037 76.1667 256.572 76.6882 260.455 79.2123C267.644 83.8828 287.638 98.7311 287.433 101.299C287.227 103.866 284.743 107.199 282.177 108.695C279.612 110.192 276.892 107.547 273.682 104.786C269.882 101.518 268.127 101.14 265.133 99.4282C262.139 97.7165 253.829 91.5478 253.829 91.5478C253.829 91.5478 238.769 92.8515 235.518 92.9497C227.967 93.1745 227.946 94.8031 227.946 94.8031" stroke="black" stroke-width="2" stroke-miterlimit="10"/>
<path d="M205.455 70.6196C201.393 73.7219 190.059 73.6785 185.47 73.0758C180.585 72.4372 178.499 68.6963 179.699 67.1924C181.409 65.0536 194.025 65.2237 197.61 59.8126C199.417 57.0863 200.319 47.513 200.87 44.2086C201.672 39.4116 204.621 37.8283 204.646 43.621C204.663 47.4129 204.53 50.092 204.53 50.092L209.189 50.3055C210.524 35.973 214.584 37.577 213.945 50.1978C213.678 55.4369 213.639 63.2512 213.522 66.533C213.282 73.2496 214.335 75.6301 216.889 79.2085C217.775 80.4479 212.085 83.2158 205.865 83.5049C200.817 83.7392 196.33 82.4015 196.691 81.4266C197.823 78.3772 198.08 75.7586 197.446 72.9133" fill="#FFDF8C"/>
<path d="M205.455 70.6196C201.393 73.7219 190.059 73.6785 185.47 73.0758C180.585 72.4372 178.499 68.6963 179.699 67.1924C181.409 65.0536 194.025 65.2237 197.61 59.8126C199.417 57.0863 200.319 47.513 200.87 44.2086C201.672 39.4116 204.621 37.8283 204.646 43.621C204.663 47.4129 204.53 50.092 204.53 50.092L209.189 50.3055C210.524 35.973 214.584 37.577 213.945 50.1978C213.678 55.4369 213.639 63.2512 213.522 66.533C213.282 73.2496 214.335 75.6301 216.889 79.2085C217.775 80.4479 212.085 83.2158 205.865 83.5049C200.817 83.7392 196.33 82.4015 196.691 81.4266C197.823 78.3772 198.08 75.7586 197.446 72.9133" stroke="black" stroke-width="2" stroke-miterlimit="10"/>
<path d="M204.531 50.0958L201.833 49.9617" stroke="black" stroke-width="2" stroke-miterlimit="10"/>
<path d="M295.998 119.822C296.347 118.654 294.886 114.698 291.894 111.845L295.998 119.822Z" fill="#FFDF8C"/>
<path d="M295.998 119.822C296.347 118.654 294.886 114.698 291.894 111.845" stroke="black" stroke-width="2" stroke-miterlimit="10"/>
<path d="M298.034 117.57C297.941 115.41 296.076 112.023 293.962 110.241L298.034 117.57Z" fill="#FFDF8C"/>
<path d="M298.034 117.57C297.941 115.41 296.076 112.023 293.962 110.241" stroke="black" stroke-width="2" stroke-miterlimit="10"/>
<path d="M299.003 114.53C299.003 114.53 297.8 111.104 295.592 108.93L299.003 114.53Z" fill="#FFDF8C"/>
<path d="M299.003 114.53C299.003 114.53 297.8 111.104 295.592 108.93" stroke="black" stroke-width="2" stroke-miterlimit="10"/>
<path d="M202.311 207.058C200.882 210.068 200.8 210.895 200.8 210.895C200.8 210.895 208.066 210.11 208.631 203.686C205.799 201.277 202.979 196.969 198.075 186.276L187.881 194.279L196.955 206.151C197.865 205.923 200.799 205.354 202.311 207.058Z" fill="#C5D7EA" stroke="black" stroke-width="2" stroke-miterlimit="10"/>
<path d="M213.338 207.536C212.772 206.18 210.346 204.891 208.636 203.686C208.069 210.109 200.805 210.895 200.805 210.895C200.805 210.895 200.881 210.068 202.316 207.058C200.805 205.358 197.87 205.925 196.962 206.151L197.037 206.25C197.037 206.25 192.824 214.952 183.991 219.316C180.903 220.841 180.216 225.047 186.751 225.436C196.864 226.04 205.121 218.099 207.964 215.755C211.382 212.928 214.833 211.126 213.338 207.536Z" fill="#F4EED8" stroke="black" stroke-width="2" stroke-miterlimit="10"/>
<path d="M199.065 117.864C199.065 117.864 174.302 138.001 168.531 142.804C162.76 147.606 158.579 152.751 159.226 158.205C159.874 163.66 175.904 187.192 177.188 188.745C178.472 190.298 183.92 196.742 187.759 196.568C191.599 196.395 202.027 192.093 201.064 186.268C200.101 180.443 184.099 156.858 184.099 156.858C184.099 156.858 196.532 150.191 201.923 147.625C207.314 145.059 215.564 142.492 222.339 137.678C229.114 132.864 237.482 127.744 236.046 116.591C235.836 114.953 235.508 112.973 235.508 112.973C235.508 112.973 228.523 116.394 211.753 115.754C204.064 115.459 196.898 112.33 196.898 112.33L199.065 117.864Z" fill="#5A8BBA" stroke="black" stroke-width="2" stroke-miterlimit="10"/>
<path d="M199.065 117.864L202.75 114.301" stroke="black" stroke-width="2" stroke-miterlimit="10"/>
<path d="M180.596 67.5286C181.275 67.5286 181.825 66.978 181.825 66.2987C181.825 65.6194 181.275 65.0687 180.596 65.0687C179.917 65.0687 179.367 65.6194 179.367 66.2987C179.367 66.978 179.917 67.5286 180.596 67.5286Z" fill="black" stroke="black" stroke-width="2" stroke-miterlimit="10"/>
<path d="M204.561 58.8264C204.463 58.9523 204.398 59.1011 204.372 59.259C204.363 59.3378 204.383 59.4174 204.428 59.4825C204.473 59.5477 204.541 59.5939 204.618 59.6123C204.68 59.6149 204.741 59.5993 204.795 59.5674C204.848 59.5355 204.891 59.4888 204.918 59.4328C204.971 59.321 205.001 59.1995 205.007 59.0758C205.016 58.9735 205.011 58.8703 204.99 58.7697C204.96 58.5959 204.686 58.6148 204.556 58.8264" fill="black"/>
<path d="M204.561 58.8264C204.463 58.9523 204.398 59.1011 204.372 59.259C204.363 59.3378 204.383 59.4174 204.428 59.4825C204.473 59.5477 204.541 59.5939 204.618 59.6123C204.68 59.6149 204.741 59.5993 204.795 59.5674C204.848 59.5355 204.891 59.4888 204.918 59.4328C204.971 59.321 205.001 59.1995 205.007 59.0758C205.016 58.9735 205.011 58.8703 204.99 58.7697C204.96 58.5959 204.686 58.6148 204.556 58.8264" stroke="black" stroke-width="2" stroke-miterlimit="10"/>
<path d="M201.312 58.509C201.249 58.6035 201.21 58.7123 201.2 58.8256C201.19 58.9388 201.208 59.0528 201.253 59.1571C201.27 59.1993 201.298 59.2361 201.335 59.2629C201.471 59.3498 201.622 59.1684 201.665 59.0116C201.711 58.8442 201.731 58.671 201.725 58.4977C201.729 58.4607 201.724 58.4234 201.712 58.3883C201.7 58.3532 201.681 58.321 201.656 58.2936C201.632 58.2797 201.606 58.2706 201.58 58.267C201.553 58.2633 201.525 58.2652 201.499 58.2724C201.473 58.2796 201.449 58.2921 201.428 58.3091C201.406 58.3261 201.389 58.3472 201.376 58.3711C201.329 58.4711 201.311 58.5825 201.325 58.6923" fill="black"/>
<path d="M201.312 58.509C201.249 58.6035 201.21 58.7123 201.2 58.8256C201.19 58.9388 201.208 59.0528 201.253 59.1571C201.27 59.1993 201.298 59.2361 201.335 59.2629C201.471 59.3498 201.622 59.1684 201.665 59.0116C201.711 58.8442 201.731 58.671 201.725 58.4977C201.729 58.4607 201.724 58.4234 201.712 58.3883C201.7 58.3532 201.681 58.321 201.656 58.2936C201.632 58.2797 201.606 58.2706 201.58 58.267C201.553 58.2633 201.525 58.2652 201.499 58.2724C201.473 58.2796 201.449 58.2921 201.428 58.3091C201.406 58.3261 201.389 58.3472 201.376 58.3711C201.329 58.4711 201.311 58.5825 201.325 58.6923" stroke="black" stroke-width="2" stroke-miterlimit="10"/>
<path d="M190.284 214.963C190.284 214.963 193.682 214.963 195.105 216.31L190.284 214.963Z" fill="#F4EED8"/>
<path d="M190.284 214.963C190.284 214.963 193.682 214.963 195.105 216.31" stroke="black" stroke-width="2" stroke-miterlimit="10"/>
<path d="M192.758 212.422C192.758 212.422 195.099 211.885 197.022 213.525L192.758 212.422Z" fill="#F4EED8"/>
<path d="M192.758 212.422C192.758 212.422 195.099 211.885 197.022 213.525" stroke="black" stroke-width="2" stroke-miterlimit="10"/>
<path d="M194.416 210.376C194.416 210.376 197.665 210.032 199.303 211.53L194.416 210.376Z" fill="#F4EED8"/>
<path d="M194.416 210.376C194.416 210.376 197.665 210.032 199.303 211.53" stroke="black" stroke-width="2" stroke-miterlimit="10"/>
<path d="M283.104 164.49C283.104 164.49 285.652 164.61 286.934 164.112L283.104 164.49Z" fill="#F4EED8"/>
<path d="M283.104 164.49C283.104 164.49 285.652 164.61 286.934 164.112" stroke="black" stroke-width="2" stroke-miterlimit="10"/>
<path d="M284.386 166.757C285.549 166.967 286.74 166.967 287.903 166.757H284.386Z" fill="#F4EED8"/>
<path d="M284.386 166.757C285.549 166.967 286.74 166.967 287.903 166.757" stroke="black" stroke-width="2" stroke-miterlimit="10"/>
<path d="M286.126 169.052C287.028 169.189 287.945 169.189 288.846 169.052H286.126Z" fill="#F4EED8"/>
<path d="M286.126 169.052C287.028 169.189 287.945 169.189 288.846 169.052" stroke="black" stroke-width="2" stroke-miterlimit="10"/>
<path d="M181.729 222.143C181.729 222.143 184.22 224.47 188.974 224.134C192.759 223.866 198.601 222.007 203.26 217.449C208.602 212.222 214.194 210.342 212.51 206.44" fill="#F4EED8"/>
<path d="M181.729 222.143C181.729 222.143 184.22 224.47 188.974 224.134C192.759 223.866 198.601 222.007 203.26 217.449C208.602 212.222 214.194 210.342 212.51 206.44" stroke="black" stroke-width="2" stroke-miterlimit="10"/>
<path d="M286.559 143.968C288.85 144.362 290.062 145.29 289.768 150.495C289.473 155.7 288.699 159.978 291.548 164.114C294.396 168.249 298.229 171.703 296.645 173.577" stroke="black" stroke-width="2" stroke-miterlimit="10"/>
<path d="M227.493 115.034C227.493 115.034 228.609 120.264 227.493 121.224C226.377 122.183 226.328 122.754 227.493 122.898C228.658 123.041 227.944 124.031 224.095 125.892C220.246 127.753 212.997 134.449 204.155 138.585C195.313 142.721 190.324 146.856 189.114 146.998C187.904 147.14 185.195 148.132 185.904 148.424C186.614 148.717 178.354 153.274 178.354 155.698C178.354 158.122 183.056 170.671 186.618 172.81C190.18 174.949 186.903 174.095 188.47 175.236C190.037 176.377 195.094 184.482 197.269 186.275C199.443 188.068 198.388 186.787 197.703 188.354C197.018 189.92 199.385 189.841 197.703 192.51" stroke="black" stroke-width="2" stroke-miterlimit="10"/>
<path d="M228.748 132.96C228.748 132.96 236.661 144.296 235.721 147.142C234.781 149.987 234.81 153.701 235.721 151.277C236.633 148.853 236.68 149.993 236.871 151.563C237.062 153.133 236.437 152.847 238.032 152.061C239.627 151.275 242.334 153.131 251.454 151.848C260.573 150.565 266.629 148.568 266.522 149.707C266.414 150.847 271.403 148.424 272.685 148.424C273.967 148.424 276.119 149.624 276.345 150.488" stroke="black" stroke-width="2" stroke-miterlimit="10"/>
<path d="M199.879 51.1708C199.879 51.1708 205.418 52.5935 213.867 51.9492C214.122 55.3009 213.731 56.4836 213.731 56.4836C213.731 56.4836 205.384 57.3074 199.102 55.452C199.271 54.0101 199.531 52.5802 199.879 51.1708Z" fill="#5A8BBA" stroke="black" stroke-width="2" stroke-miterlimit="10"/>
<path d="M197.251 79.6771C197.251 79.6771 195.122 80.5708 194.42 82.3637C193.961 83.5351 200.068 86.5807 208.189 85.1977C216.31 83.8148 218.683 81.1319 219.111 79.2067C219.54 77.2814 215.632 77.3362 215.632 77.3362" stroke="black" stroke-width="2" stroke-miterlimit="10"/>
<path d="M144.342 40.5188C144.53 40.3147 146.679 37.1671 147.133 36.9498C147.259 36.8946 147.394 36.8669 147.531 36.8686C147.667 36.8703 147.802 36.9012 147.925 36.9594C148.049 37.0176 148.159 37.1017 148.247 37.206C148.336 37.3102 148.401 37.4323 148.438 37.5638C148.761 39.1887 147.683 39.5741 147.258 40.9155C146.945 41.8942 147.143 42.8672 147.23 43.8799C147.365 45.1731 147.882 46.3969 148.714 47.396C148.714 47.396 150.652 51.9663 149.688 54.874C148.723 57.7816 139.794 49.7236 139.794 49.7236" fill="#FFDF8C"/>
<path d="M144.342 40.5188C144.53 40.3147 146.679 37.1671 147.133 36.9498C147.259 36.8946 147.394 36.8669 147.531 36.8686C147.667 36.8703 147.802 36.9012 147.925 36.9594C148.049 37.0176 148.159 37.1017 148.247 37.206C148.336 37.3102 148.401 37.4323 148.438 37.5638C148.761 39.1887 147.683 39.5741 147.258 40.9155C146.945 41.8942 147.143 42.8672 147.23 43.8799C147.365 45.1731 147.882 46.3969 148.714 47.396C148.714 47.396 150.652 51.9663 149.688 54.874C148.723 57.7816 139.794 49.7236 139.794 49.7236" stroke="black" stroke-width="2" stroke-linejoin="round"/>
<path d="M141.971 44.3995C142.241 43.4548 142.299 42.2607 142.95 41.5768C143.517 40.9835 144.529 40.362 145.248 40.0181C145.742 39.78 146.448 39.6232 146.811 40.0993C147.462 40.9571 146.594 42.478 145.95 43.0807C145.306 43.6834 144.593 43.6834 144.715 44.715" fill="#FFDF8C"/>
<path d="M141.971 44.3995C142.241 43.4548 142.299 42.2607 142.95 41.5768C143.517 40.9835 144.529 40.362 145.248 40.0181C145.742 39.78 146.448 39.6232 146.811 40.0993C147.462 40.9571 146.594 42.478 145.95 43.0807C145.306 43.6834 144.593 43.6834 144.715 44.715" stroke="black" stroke-width="2" stroke-linejoin="round"/>
<path d="M140.302 45.1023C141.057 42.7066 144.406 44.0632 145.567 45.0475C145.761 45.2059 145.915 45.4085 146.016 45.6386C146.116 45.8687 146.16 46.1195 146.144 46.3701C146.006 47.5037 145.076 47.2051 144.428 47.6926" fill="#FFDF8C"/>
<path d="M140.302 45.1023C141.057 42.7066 144.406 44.0632 145.567 45.0475C145.761 45.2059 145.915 45.4085 146.016 45.6386C146.116 45.8687 146.16 46.1195 146.144 46.3701C146.006 47.5037 145.076 47.2051 144.428 47.6926" stroke="black" stroke-width="2" stroke-linejoin="round"/>
<path d="M140.878 48.2933C141.633 48.8412 143.815 50.2601 144.58 48.7147C145.216 47.4299 143.377 46.557 142.645 46.1697C142.037 45.8467 140.757 44.9379 140.081 45.2761C139.57 45.5292 139.458 46.268 139.285 46.8045C138.796 48.3273 138.649 49.6386 138.93 51.15C139.377 53.5684 139.638 55.5918 141.237 57.2941C142.129 58.2388 142.569 59.4064 143.313 60.4644C143.562 60.8159 143.502 60.814 143.8 60.9727C144.924 61.4382 146.156 61.5803 147.357 61.383C148.558 61.1857 149.679 60.6569 150.596 59.8561C150.915 57.0939 151.647 53.8272 152.204 50.9139C152.446 49.6423 152.512 48.4747 152.24 47.2504C152.06 46.5743 151.828 45.9135 151.544 45.2742C151.31 44.6809 151.142 43.8402 150.802 43.3452C150.462 42.8502 149.935 42.7519 149.386 42.5894C148.418 42.2928 147.876 41.4804 147.011 40.9911C146.226 40.5414 145.69 41.3973 145.856 42.289C146.045 43.2696 146.726 44.322 147.323 45.0229C147.757 45.533 148.455 45.8542 148.665 46.5608C148.952 47.5811 147.874 48.9565 147.645 50.0353C147.499 50.7561 147.494 51.4985 147.63 52.2213C147.819 53.3303 148.35 53.7441 149.014 54.5376" fill="#FFDF8C"/>
<path d="M140.878 48.2933C141.633 48.8412 143.815 50.2601 144.58 48.7147C145.216 47.4299 143.377 46.557 142.645 46.1697C142.037 45.8467 140.757 44.9379 140.081 45.2761C139.57 45.5292 139.458 46.268 139.285 46.8045C138.796 48.3273 138.649 49.6386 138.93 51.15C139.377 53.5684 139.638 55.5918 141.237 57.2941C142.129 58.2388 142.569 59.4064 143.313 60.4644C143.562 60.8159 143.502 60.814 143.8 60.9727C144.924 61.4382 146.156 61.5803 147.357 61.383C148.558 61.1857 149.679 60.6569 150.596 59.8561C150.915 57.0939 151.647 53.8272 152.204 50.9139C152.446 49.6423 152.512 48.4747 152.24 47.2504C152.06 46.5743 151.828 45.9135 151.544 45.2742C151.31 44.6809 151.142 43.8402 150.802 43.3452C150.462 42.8502 149.935 42.7519 149.386 42.5894C148.418 42.2928 147.876 41.4804 147.011 40.9911C146.226 40.5414 145.69 41.3973 145.856 42.289C146.045 43.2696 146.726 44.322 147.323 45.0229C147.757 45.533 148.455 45.8542 148.665 46.5608C148.952 47.5811 147.874 48.9565 147.645 50.0353C147.499 50.7561 147.494 51.4985 147.63 52.2213C147.819 53.3303 148.35 53.7441 149.014 54.5376" stroke="black" stroke-width="2" stroke-linejoin="round"/>
<path d="M147.594 52.5557C147.47 52.4499 147.453 52.3044 147.322 52.14C147.049 51.7981 146.532 51.6582 146.152 51.5373C144.987 51.1595 143.46 51.2105 142.254 51.0555" fill="#FFDF8C"/>
<path d="M147.594 52.5557C147.47 52.4499 147.453 52.3044 147.322 52.14C147.049 51.7981 146.532 51.6582 146.152 51.5373C144.987 51.1595 143.46 51.2105 142.254 51.0555" stroke="black" stroke-width="2" stroke-linejoin="round"/>
<path d="M146.062 43.2167C145.894 43.7832 145.697 44.3401 145.469 44.885L146.062 43.2167Z" fill="#FFDF8C"/>
<path d="M146.062 43.2167C145.894 43.7832 145.697 44.3401 145.469 44.885" stroke="black" stroke-width="2" stroke-miterlimit="10"/>
<path d="M162.615 86.6149C163.205 87.7641 163.536 89.0287 163.586 90.3199" stroke="black" stroke-width="2" stroke-miterlimit="10"/>
<path d="M145.469 62.4426C145.469 62.4426 150.36 62.4105 151.428 60.2717" stroke="black" stroke-width="2" stroke-miterlimit="10"/>
<path d="M146.828 145.948L145.197 145.56L150.517 123.094L151.87 121.057L152.148 123.481L146.828 145.948Z" fill="#E30613" stroke="black" stroke-width="2" stroke-linejoin="round"/>
<path d="M164.361 88.4663C164.361 88.4663 168.101 90.9225 169.49 90.1988C170.88 89.4752 164.254 87.9694 167.674 87.327C171.095 86.6847 173.979 86.0442 173.979 86.0442" stroke="black" stroke-width="2" stroke-miterlimit="10"/>
<path d="M192.573 84.5479C192.573 84.5479 212.915 110.538 221.001 88.4663" stroke="black" stroke-width="2" stroke-miterlimit="10"/>
<path d="M147.351 134.942C148.776 134.3 149.025 132.803 149.025 132.803C149.238 135.868 150.735 136.189 150.949 134.3C151.162 132.41 151.411 131.59 148.347 131.483C145.284 131.375 144.608 133.939 144.608 133.939C143.212 134.628 141.676 134.986 140.12 134.986C138.563 134.986 137.028 134.628 135.632 133.939C130.786 131.587 128.411 124.277 128.411 124.277L124.517 127.451C124.517 127.451 130.025 139.543 140.44 139.002C144.5 138.789 146.584 137.772 146.584 137.772" fill="#9E7842"/>
<path d="M147.351 134.942C148.776 134.3 149.025 132.803 149.025 132.803C149.238 135.868 150.735 136.189 150.949 134.3C151.162 132.41 151.411 131.59 148.347 131.483C145.284 131.375 144.608 133.939 144.608 133.939C143.212 134.628 141.676 134.986 140.12 134.986C138.563 134.986 137.028 134.628 135.632 133.939C130.786 131.587 128.411 124.277 128.411 124.277L124.517 127.451C124.517 127.451 130.025 139.543 140.44 139.002C144.5 138.789 146.584 137.772 146.584 137.772" stroke="black" stroke-width="2" stroke-linejoin="round"/>
<path d="M111.888 139.756V152.02C111.888 152.02 109.538 152.519 109.538 153.446C109.538 154.374 116.523 157.372 120.368 157.372C124.213 157.372 120.368 153.873 113.742 151.878V139.756" fill="#9E7842"/>
<path d="M111.888 139.756V152.02C111.888 152.02 109.538 152.519 109.538 153.446C109.538 154.374 116.523 157.372 120.368 157.372C124.213 157.372 120.368 153.873 113.742 151.878V139.756" stroke="black" stroke-width="2" stroke-linejoin="round"/>
<path d="M122.391 137.455V149.721C122.391 149.721 120.039 150.219 120.039 151.147C120.039 152.075 127.024 155.073 130.869 155.073C134.714 155.073 130.869 151.574 124.243 149.577V137.455" fill="#9E7842"/>
<path d="M122.391 137.455V149.721C122.391 149.721 120.039 150.219 120.039 151.147C120.039 152.075 127.024 155.073 130.869 155.073C134.714 155.073 130.869 151.574 124.243 149.577V137.455" stroke="black" stroke-width="2" stroke-linejoin="round"/>
<path d="M119.146 141.564C127.258 140.496 133.281 135.429 132.6 130.246C131.919 125.063 124.792 121.727 116.681 122.794C108.57 123.861 102.546 128.928 103.227 134.111C103.908 139.295 111.035 142.631 119.146 141.564Z" fill="#9E7842" stroke="black" stroke-width="2" stroke-linejoin="round"/>
<path d="M118.721 125.234C124.028 124.536 127.969 121.22 127.524 117.829C127.078 114.438 122.415 112.255 117.108 112.953C111.801 113.651 107.86 116.967 108.306 120.358C108.751 123.749 113.414 125.932 118.721 125.234Z" fill="#9E7842" stroke="black" stroke-width="2" stroke-linejoin="round"/>
<path d="M122.826 144.82C122.826 144.82 125.071 137.974 129.244 133.589C139.504 130.82 141.634 130.175 141.634 130.175C141.634 130.175 135.215 137.99 133.084 146.919C128.918 148.037 121.329 149.535 121.329 149.535L122.515 146.061" fill="#F4EED8"/>
<path d="M122.826 144.82C122.826 144.82 125.071 137.974 129.244 133.589C139.504 130.82 141.634 130.175 141.634 130.175C141.634 130.175 135.215 137.99 133.084 146.919C128.918 148.037 121.329 149.535 121.329 149.535L122.515 146.061" stroke="black" stroke-width="2" stroke-linejoin="round"/>
<path d="M111.258 128.369C110.954 128.515 103.854 132.021 106.095 137.75C108.326 143.444 118.771 144.328 122.609 144.187L122.762 148.249C122.371 148.264 116.891 148.438 111.598 146.758C107.697 145.522 103.899 143.282 102.316 139.231C100.805 135.396 101.659 131.504 104.698 128.273C106.089 126.818 107.715 125.609 109.508 124.696" fill="#9E7842"/>
<path d="M111.258 128.369C110.954 128.515 103.854 132.021 106.095 137.75C108.326 143.444 118.771 144.328 122.609 144.187L122.762 148.249C122.371 148.264 116.891 148.438 111.598 146.758C107.697 145.522 103.899 143.282 102.316 139.231C100.805 135.396 101.659 131.504 104.698 128.273C106.089 126.818 107.715 125.609 109.508 124.696" stroke="black" stroke-width="2" stroke-linejoin="round"/>
<path d="M121.674 144.784C121.674 144.784 122.429 141.816 123.892 140.793C125.355 139.771 125.294 140.85 124.345 141.957C123.941 142.431 124.305 142.753 124.305 142.753C124.305 142.753 125.991 141.974 126.922 140.61C128.179 138.766 130.11 139.24 129.187 141.823C128.338 144.19 125.931 148.247 121.993 148.26" fill="#9E7842"/>
<path d="M121.674 144.784C121.674 144.784 122.429 141.816 123.892 140.793C125.355 139.771 125.294 140.85 124.345 141.957C123.941 142.431 124.305 142.753 124.305 142.753C124.305 142.753 125.991 141.974 126.922 140.61C128.179 138.766 130.11 139.24 129.187 141.823C128.338 144.19 125.931 148.247 121.993 148.26" stroke="black" stroke-width="2" stroke-linejoin="round"/>
<path d="M120.023 122.627C118.618 122.885 117.167 122.639 115.925 121.93C115.665 121.773 115.619 121.405 115.821 121.108C115.905 120.969 116.037 120.866 116.193 120.82C116.348 120.773 116.515 120.786 116.661 120.855C118.275 121.826 120.85 121.841 122.366 120.185C122.41 120.117 122.468 120.059 122.536 120.016C122.605 119.973 122.682 119.945 122.762 119.935C122.842 119.925 122.923 119.932 123 119.957C123.077 119.981 123.148 120.022 123.208 120.077C123.267 120.132 123.314 120.199 123.345 120.273C123.376 120.348 123.39 120.428 123.387 120.509C123.383 120.59 123.362 120.669 123.325 120.741C123.288 120.813 123.236 120.876 123.172 120.925C122.34 121.826 121.232 122.425 120.023 122.627Z" fill="#D20A11" stroke="black" stroke-width="2" stroke-miterlimit="10"/>
<path d="M124.887 117.592C124.951 116.847 124.5 116.199 123.88 116.146C123.26 116.093 122.706 116.654 122.641 117.399C122.577 118.144 123.028 118.792 123.648 118.845C124.268 118.899 124.823 118.338 124.887 117.592Z" fill="#D20A11" stroke="black" stroke-width="2" stroke-miterlimit="10"/>
<path d="M116.004 118.716C116.068 117.971 115.618 117.323 114.998 117.27C114.377 117.216 113.823 117.777 113.759 118.523C113.695 119.268 114.145 119.916 114.765 119.969C115.386 120.022 115.94 119.461 116.004 118.716Z" fill="#D20A11" stroke="black" stroke-width="2" stroke-miterlimit="10"/>
<path d="M149.186 133.674C149.186 133.674 146.664 133.965 145.753 135.216C144.901 136.384 145.352 137.861 147.214 138.061C149.704 138.33 150.423 137.438 150.8 136.469C151.178 135.499 151.178 133.553 150.457 133.198" fill="#9E7842"/>
<path d="M149.186 133.674C149.186 133.674 146.664 133.965 145.753 135.216C144.901 136.384 145.352 137.861 147.214 138.061C149.704 138.33 150.423 137.438 150.8 136.469C151.178 135.499 151.178 133.553 150.457 133.198" stroke="black" stroke-width="2" stroke-linejoin="round"/>
<path d="M149.026 132.803C149.239 135.868 150.736 136.189 150.949 134.3C151.163 132.41 151.412 131.59 148.348 131.483C145.284 131.375 144.608 133.939 144.608 133.939" fill="#9E7842"/>
<path d="M149.026 132.803C149.239 135.868 150.736 136.189 150.949 134.3C151.163 132.41 151.412 131.59 148.348 131.483C145.284 131.375 144.608 133.939 144.608 133.939" stroke="black" stroke-width="2" stroke-linejoin="round"/>
<path d="M72.3443 209.924V222.186C72.3443 222.186 69.9922 222.685 69.9922 223.612C69.9922 224.54 76.9768 227.538 80.8221 227.538C84.6674 227.538 80.8221 224.039 74.1962 222.044V209.924" fill="#9E7842"/>
<path d="M72.3443 209.924V222.186C72.3443 222.186 69.9922 222.685 69.9922 223.612C69.9922 224.54 76.9768 227.538 80.8221 227.538C84.6674 227.538 80.8221 224.039 74.1962 222.044V209.924" stroke="black" stroke-width="2" stroke-linejoin="round"/>
<path d="M92.8541 120.321C92.8541 120.321 87.0625 122.754 83.6438 128.114C80.2251 133.474 74.8809 133.155 72.3174 135.615V154.227C72.3174 154.227 74.9243 150.884 78.377 149.989C81.8297 149.093 84.7141 148.882 87.7062 144.442C90.6983 140.002 92.8559 139.465 92.8559 139.465" fill="#D20A11"/>
<path d="M92.8541 120.321C92.8541 120.321 87.0625 122.754 83.6438 128.114C80.2251 133.474 74.8809 133.155 72.3174 135.615V154.227C72.3174 154.227 74.9243 150.884 78.377 149.989C81.8297 149.093 84.7141 148.882 87.7062 144.442C90.6983 140.002 92.8559 139.465 92.8559 139.465" stroke="black" stroke-width="2" stroke-miterlimit="10"/>
<path d="M82.8453 207.625V219.889C82.8453 219.889 80.4951 220.387 80.4951 221.315C80.4951 222.243 87.4797 225.241 91.3251 225.241C95.1704 225.241 91.3251 221.742 84.6991 219.745V207.625" fill="#9E7842"/>
<path d="M82.8453 207.625V219.889C82.8453 219.889 80.4951 220.387 80.4951 221.315C80.4951 222.243 87.4797 225.241 91.3251 225.241C95.1704 225.241 91.3251 221.742 84.6991 219.745V207.625" stroke="black" stroke-width="2" stroke-linejoin="round"/>
<path d="M79.5986 211.731C87.7098 210.664 93.7333 205.597 93.0525 200.414C92.3716 195.231 85.2442 191.894 77.133 192.962C69.0217 194.029 62.9982 199.096 63.6791 204.279C64.36 209.462 71.4874 212.799 79.5986 211.731Z" fill="#9E7842" stroke="black" stroke-width="2" stroke-linejoin="round"/>
<path d="M93.72 120.321H92.8535V227.54H93.72V120.321Z" fill="#6B6B6A" stroke="black" stroke-width="2" stroke-miterlimit="10"/>
<path d="M90.9639 206.635C90.9639 206.635 93.4746 207.918 94.9715 207.277C96.4685 206.637 96.8989 203.121 96.0419 202.34C95.1849 201.56 92.0323 202.424 92.0323 202.424" fill="#9E7842"/>
<path d="M90.9639 206.635C90.9639 206.635 93.4746 207.918 94.9715 207.277C96.4685 206.637 96.8989 203.121 96.0419 202.34C95.1849 201.56 92.0323 202.424 92.0323 202.424" stroke="black" stroke-width="2" stroke-linejoin="round"/>
<path d="M79.1724 195.4C84.4793 194.701 88.4202 191.386 87.9747 187.995C87.5292 184.604 82.866 182.421 77.5591 183.119C72.2523 183.817 68.3113 187.132 68.7568 190.524C69.2023 193.915 73.8655 196.098 79.1724 195.4Z" fill="#9E7842" stroke="black" stroke-width="2" stroke-linejoin="round"/>
<path d="M71.3116 199.865C71.236 200.194 69.5371 207.933 75.4042 209.758C81.241 211.575 88.4578 203.963 90.7458 200.878L94.0097 203.293C93.7756 203.606 90.4872 207.997 85.8717 211.084C82.4737 213.351 78.349 214.927 74.1998 213.637C70.2695 212.412 67.7607 209.32 67.1378 204.925C66.8744 202.93 66.9484 200.906 67.3567 198.936" fill="#9E7842"/>
<path d="M71.3116 199.865C71.236 200.194 69.5371 207.933 75.4042 209.758C81.241 211.575 88.4578 203.963 90.7458 200.878L94.0097 203.293C93.7756 203.606 90.4872 207.997 85.8717 211.084C82.4737 213.351 78.349 214.927 74.1998 213.637C70.2695 212.412 67.7607 209.32 67.1378 204.925C66.8744 202.93 66.9484 200.906 67.3567 198.936" stroke="black" stroke-width="2" stroke-linejoin="round"/>
<path d="M82.2432 191.936C80.8402 192.192 79.3918 191.945 78.1525 191.239C77.892 191.082 77.8448 190.714 78.0487 190.417C78.1317 190.278 78.2637 190.175 78.4187 190.128C78.5738 190.081 78.7408 190.094 78.8868 190.164C80.5009 191.135 83.0757 191.15 84.5935 189.493C84.6373 189.425 84.6955 189.368 84.7638 189.325C84.8321 189.281 84.9091 189.254 84.9892 189.244C85.0693 189.233 85.1507 189.241 85.2277 189.265C85.3046 189.29 85.3754 189.331 85.4349 189.385C85.4944 189.44 85.5412 189.507 85.5722 189.582C85.6031 189.656 85.6174 189.737 85.614 189.818C85.6107 189.899 85.5897 189.978 85.5527 190.049C85.5156 190.121 85.4634 190.184 85.3995 190.234C84.5653 191.136 83.4549 191.735 82.2432 191.936Z" fill="#D20A11" stroke="black" stroke-width="2" stroke-miterlimit="10"/>
<path d="M86.4682 186.665C86.5323 185.92 86.0816 185.272 85.4614 185.219C84.8413 185.166 84.2866 185.727 84.2225 186.472C84.1584 187.217 84.6091 187.865 85.2293 187.918C85.8494 187.972 86.4041 187.411 86.4682 186.665Z" fill="#D20A11" stroke="black" stroke-width="2" stroke-miterlimit="10"/>
<path d="M78.6108 188.064C78.6749 187.318 78.2242 186.671 77.604 186.617C76.9839 186.564 76.4292 187.125 76.3651 187.87C76.301 188.616 76.7517 189.263 77.3719 189.317C77.992 189.37 78.5467 188.809 78.6108 188.064Z" fill="#D20A11" stroke="black" stroke-width="2" stroke-miterlimit="10"/>
<path d="M89.8369 202.021C89.8369 202.021 90.4467 198.862 91.6586 198.042C92.8705 197.222 93.1895 198.541 93.1895 198.541C93.1895 198.541 97.1651 196.098 97.1727 199.643C97.1727 202.756 93.569 203.865 93.569 203.865" fill="#9E7842"/>
<path d="M89.8369 202.021C89.8369 202.021 90.4467 198.862 91.6586 198.042C92.8705 197.222 93.1895 198.541 93.1895 198.541C93.1895 198.541 97.1651 196.098 97.1727 199.643C97.1727 202.756 93.569 203.865 93.569 203.865" stroke="black" stroke-width="2" stroke-linejoin="round"/>
<path d="M93.2883 120.33C94.0014 120.33 94.5795 119.752 94.5795 119.038C94.5795 118.324 94.0014 117.745 93.2883 117.745C92.5752 117.745 91.9971 118.324 91.9971 119.038C91.9971 119.752 92.5752 120.33 93.2883 120.33Z" fill="#6B6B6A" stroke="black" stroke-width="2" stroke-miterlimit="10"/>
<path d="M194.268 280.304V277.173" stroke="black" stroke-width="2" stroke-miterlimit="10"/>
<path d="M228.001 272.032V268.902" stroke="black" stroke-width="2" stroke-miterlimit="10"/>
<path d="M261.734 263.761V260.63" stroke="black" stroke-width="2" stroke-miterlimit="10"/>
<path d="M295.467 255.489V252.359" stroke="black" stroke-width="2" stroke-miterlimit="10"/>
<path d="M329.2 247.218V244.087" stroke="black" stroke-width="2" stroke-miterlimit="10"/>
<path d="M350.075 237.939L348.315 236.534" stroke="black" stroke-width="2" stroke-miterlimit="10"/>
</svg>
